<svg xmlns="http://www.w3.org/2000/svg" xmlns:xlink="http://www.w3.org/1999/xlink" width="347.337" height="82.913" viewBox="0 0 347.337 82.913">
  <defs>
    <clipPath id="clip-path">
      <rect id="Rectangle_4" data-name="Rectangle 4" width="347.337" height="82.913" fill="none"/>
    </clipPath>
  </defs>
  <g id="Group_1" data-name="Group 1" clip-path="url(#clip-path)">
    <path id="Path_1" data-name="Path 1" d="M422.837,417.407h1.379v4.9l4.973-4.9h1.558l-3.786,3.826,4.172,6.407H429.56l-3.592-5.534-1.752,1.695v3.839h-1.379Zm9.453,0h1.379v1.448H432.29Zm.044,2.823h1.29v7.41h-1.29Zm3.308,0h1.277v1.132A3.247,3.247,0,0,1,439.6,420a2.5,2.5,0,0,1,1.935.689,2.9,2.9,0,0,1,.632,2.02v4.931H440.88v-4.686a2.168,2.168,0,0,0-.384-1.455,1.535,1.535,0,0,0-1.187-.424,2.674,2.674,0,0,0-.856.143,2.143,2.143,0,0,0-.763.46,2.4,2.4,0,0,0-.565.666,1.889,1.889,0,0,0-.192.911v4.385h-1.292Zm9.575,8.1a1.474,1.474,0,0,0,.632.961,2.9,2.9,0,0,0,1.463.285,1.938,1.938,0,0,0,1.682-.651,3.233,3.233,0,0,0,.468-1.9v-.788a3.012,3.012,0,0,1-2.551,1.263,3.319,3.319,0,0,1-1.448-.3,2.746,2.746,0,0,1-1.014-.8,3.447,3.447,0,0,1-.6-1.183,5.057,5.057,0,0,1-.2-1.446,4.748,4.748,0,0,1,.238-1.541,3.369,3.369,0,0,1,.685-1.191,3.02,3.02,0,0,1,1.073-.765,3.52,3.52,0,0,1,1.419-.274,3.433,3.433,0,0,1,1.269.251,2.779,2.779,0,0,1,1.149.925v-.946h1.275v6.208a9.739,9.739,0,0,1-.139,1.727,3.272,3.272,0,0,1-.521,1.3,2.394,2.394,0,0,1-1.046.822,4.392,4.392,0,0,1-1.722.289,4.556,4.556,0,0,1-2.374-.525,2.195,2.195,0,0,1-1.01-1.727Zm4.275-4.674a3.662,3.662,0,0,0-.177-1.225,2.185,2.185,0,0,0-.491-.809,1.782,1.782,0,0,0-.719-.451,2.692,2.692,0,0,0-.854-.137,2.544,2.544,0,0,0-.881.15,1.833,1.833,0,0,0-.715.481,2.3,2.3,0,0,0-.474.845,4,4,0,0,0-.171,1.248,3.781,3.781,0,0,0,.185,1.261,2.35,2.35,0,0,0,.483.833,1.8,1.8,0,0,0,.691.46,2.314,2.314,0,0,0,.793.141,2.588,2.588,0,0,0,.928-.158,1.937,1.937,0,0,0,.733-.472,2.2,2.2,0,0,0,.491-.8,3.232,3.232,0,0,0,.177-1.124Zm10.064-6.248H461l4.111,10.233h-1.484l-1.113-2.852h-4.543l-1.111,2.852H455.43Zm2.536,6.234-1.868-4.743-1.84,4.743Zm4.172-6.234h1.292v3.856a3.444,3.444,0,0,1,1.1-.932,3.11,3.11,0,0,1,1.469-.331,3.336,3.336,0,0,1,1.431.287,2.79,2.79,0,0,1,1.024.8,3.456,3.456,0,0,1,.609,1.227,5.787,5.787,0,0,1,.2,1.568,5.389,5.389,0,0,1-.238,1.655,3.572,3.572,0,0,1-.683,1.256,3.019,3.019,0,0,1-1.075.795,3.473,3.473,0,0,1-1.417.278,3.269,3.269,0,0,1-1.3-.266,2.841,2.841,0,0,1-1.136-.909v.944h-1.275Zm1.275,6.735a3.879,3.879,0,0,0,.171,1.227,2.385,2.385,0,0,0,.468.839,1.757,1.757,0,0,0,.715.479,2.591,2.591,0,0,0,.9.152,2.417,2.417,0,0,0,.883-.158,1.715,1.715,0,0,0,.7-.51,2.546,2.546,0,0,0,.468-.909,4.714,4.714,0,0,0,.171-1.362,4.39,4.39,0,0,0-.186-1.37,2.48,2.48,0,0,0-.48-.879,1.711,1.711,0,0,0-.677-.474,2.2,2.2,0,0,0-.78-.143,2.6,2.6,0,0,0-.934.164,2.178,2.178,0,0,0-.75.487,2.237,2.237,0,0,0-.5.818,3.309,3.309,0,0,0-.179,1.138Zm12.813,2.439a3.468,3.468,0,0,1-1.1.953,3.031,3.031,0,0,1-1.469.335,3.305,3.305,0,0,1-1.463-.3,2.864,2.864,0,0,1-1.016-.824,3.517,3.517,0,0,1-.592-1.242,5.856,5.856,0,0,1-.194-1.533,5.391,5.391,0,0,1,.238-1.655,3.6,3.6,0,0,1,.675-1.254,2.836,2.836,0,0,1,1.069-.788,3.553,3.553,0,0,1,1.431-.274,3.479,3.479,0,0,1,1.231.236,2.8,2.8,0,0,1,1.159.9v-3.727h1.29V427.64h-1.263Zm.017-2.869a3.819,3.819,0,0,0-.2-1.383,1.979,1.979,0,0,0-.66-.839,2,2,0,0,0-.662-.356,2.527,2.527,0,0,0-.736-.1,2.424,2.424,0,0,0-.881.158,1.752,1.752,0,0,0-.71.51,2.425,2.425,0,0,0-.477.9,4.574,4.574,0,0,0-.171,1.339,4.4,4.4,0,0,0,.186,1.377,2.413,2.413,0,0,0,.489.89,1.793,1.793,0,0,0,.683.472,2.2,2.2,0,0,0,.78.143,2.794,2.794,0,0,0,.772-.1,2.347,2.347,0,0,0,.683-.346,2.205,2.205,0,0,0,.672-.86,3.159,3.159,0,0,0,.232-1.3Zm3.2-3.483h1.292V424.9a2.358,2.358,0,0,0,.348,1.461,1.38,1.38,0,0,0,1.136.432,2.333,2.333,0,0,0,1.558-.6,2.426,2.426,0,0,0,.563-.666,1.892,1.892,0,0,0,.192-.913V420.23h1.294v7.41h-1.277v-1.145a3.708,3.708,0,0,1-1.219,1.046,3.082,3.082,0,0,1-1.408.329,2.37,2.37,0,0,1-1.893-.681,3.06,3.06,0,0,1-.586-2.043Zm8.4-2.823h1.292V427.64h-1.292Zm8.089,9.217a3.709,3.709,0,0,1-1.054.839,3.285,3.285,0,0,1-1.587.352,3.887,3.887,0,0,1-1.06-.137,2.34,2.34,0,0,1-.833-.415,1.933,1.933,0,0,1-.542-.7,2.3,2.3,0,0,1-.192-.976,2.107,2.107,0,0,1,.333-1.233,2.326,2.326,0,0,1,.892-.744,4.557,4.557,0,0,1,1.254-.388,12.128,12.128,0,0,1,1.438-.143l1.32-.042v-.287a1.876,1.876,0,0,0-.413-1.362,1.852,1.852,0,0,0-1.351-.417,2.441,2.441,0,0,0-1.351.3,1.358,1.358,0,0,0-.563.809l-1.172-.129a2.116,2.116,0,0,1,.995-1.482,4.162,4.162,0,0,1,2.135-.468,4.44,4.44,0,0,1,1.4.194,2.325,2.325,0,0,1,.926.552,2.072,2.072,0,0,1,.514.888,4.326,4.326,0,0,1,.154,1.191v4.815H500.06Zm-.031-2.694-1.229.042a7.316,7.316,0,0,0-1.307.143,2.587,2.587,0,0,0-.824.308,1.089,1.089,0,0,0-.43.481,1.622,1.622,0,0,0-.126.66,1.188,1.188,0,0,0,.35.894,1.615,1.615,0,0,0,1.151.339,2.661,2.661,0,0,0,1.779-.546,1.857,1.857,0,0,0,.637-1.49Zm2.658,2.781,4.467-5.477h-4.379v-1h5.981v.932l-4.467,5.475h4.688l-.162,1h-6.128Zm7.492-9.3h1.381v1.448h-1.381Zm.044,2.823h1.292v7.41h-1.292Zm2.732,6.48,4.467-5.477h-4.379v-1h5.978v.932l-4.465,5.475h4.688l-.162,1h-6.128Zm11.2-9.3h3.472a6.194,6.194,0,0,1,1.946.257,3.289,3.289,0,0,1,1.193.666,2.14,2.14,0,0,1,.6.926,3.429,3.429,0,0,1,.164,1.046,3.135,3.135,0,0,1-.424,1.663,2.756,2.756,0,0,1-1.387,1.075l2.226,4.6h-1.528l-2-4.286a3.079,3.079,0,0,1-.415.036c-.148.006-.28.008-.4.008h-2.1v4.241h-1.349Zm3.6,4.859a4.152,4.152,0,0,0,1.174-.137,1.782,1.782,0,0,0,.727-.388,1.282,1.282,0,0,0,.369-.607,2.8,2.8,0,0,0,.105-.8,2.28,2.28,0,0,0-.118-.761,1.313,1.313,0,0,0-.409-.567,2.021,2.021,0,0,0-.778-.358,5.38,5.38,0,0,0-1.248-.12H525.5v3.742Zm8.6,5.6a4.163,4.163,0,0,1-1.556-.272,3.174,3.174,0,0,1-1.16-.774,3.382,3.382,0,0,1-.727-1.233,4.966,4.966,0,0,1-.253-1.634,4.75,4.75,0,0,1,.268-1.634,3.6,3.6,0,0,1,.757-1.248,3.355,3.355,0,0,1,1.181-.795A4.071,4.071,0,0,1,536.4,420a4.112,4.112,0,0,1,1.545.274,3.2,3.2,0,0,1,1.164.78,3.419,3.419,0,0,1,.736,1.227,5.359,5.359,0,0,1-.008,3.268,3.567,3.567,0,0,1-.742,1.248,3.227,3.227,0,0,1-1.178.795,4.194,4.194,0,0,1-1.56.278m.015-1.031a2.47,2.47,0,0,0,1.069-.215,1.993,1.993,0,0,0,.736-.6,2.561,2.561,0,0,0,.422-.925,4.9,4.9,0,0,0,.135-1.181,4.778,4.778,0,0,0-.135-1.162,2.521,2.521,0,0,0-.422-.911,2.013,2.013,0,0,0-.736-.594,2.441,2.441,0,0,0-1.069-.215,2.385,2.385,0,0,0-1.06.215,2.041,2.041,0,0,0-.727.594,2.521,2.521,0,0,0-.421.911,5.187,5.187,0,0,0,0,2.35,2.54,2.54,0,0,0,.415.917,1.928,1.928,0,0,0,.725.6,2.471,2.471,0,0,0,1.069.215m5.04,2.38a2.559,2.559,0,0,0,.831.143,1.058,1.058,0,0,0,.734-.236,2.456,2.456,0,0,0,.512-.883l.314-.788-3.251-7.224h1.5l2.42,5.82,2.211-5.82h1.425l-3.354,8.114a8.935,8.935,0,0,1-.417.881,3.175,3.175,0,0,1-.458.651,1.636,1.636,0,0,1-.6.409,2.348,2.348,0,0,1-.852.137,4.15,4.15,0,0,1-.639-.044,3.7,3.7,0,0,1-.624-.156Zm12.442-2.6a3.741,3.741,0,0,1-1.054.839,3.285,3.285,0,0,1-1.587.352,3.916,3.916,0,0,1-1.062-.137,2.312,2.312,0,0,1-.83-.415,1.931,1.931,0,0,1-.542-.7,2.306,2.306,0,0,1-.194-.976,2.091,2.091,0,0,1,.335-1.233,2.317,2.317,0,0,1,.89-.744,4.555,4.555,0,0,1,1.254-.388,12.206,12.206,0,0,1,1.44-.143l1.32-.042v-.287a1.877,1.877,0,0,0-.413-1.362,1.856,1.856,0,0,0-1.351-.417,2.436,2.436,0,0,0-1.351.3,1.371,1.371,0,0,0-.565.809l-1.17-.129a2.113,2.113,0,0,1,.993-1.482A4.175,4.175,0,0,1,552.1,420a4.45,4.45,0,0,1,1.4.194,2.354,2.354,0,0,1,.925.552,2.047,2.047,0,0,1,.512.888,4.246,4.246,0,0,1,.156,1.191v4.815h-1.246Zm-.032-2.694-1.231.042a7.292,7.292,0,0,0-1.3.143,2.567,2.567,0,0,0-.824.308,1.089,1.089,0,0,0-.43.481,1.624,1.624,0,0,0-.127.66,1.18,1.18,0,0,0,.35.894,1.613,1.613,0,0,0,1.149.339,2.663,2.663,0,0,0,1.781-.546,1.863,1.863,0,0,0,.637-1.49Zm3.266-6.522h1.294V427.64H557.09Zm6.8,0h3.472a6.2,6.2,0,0,1,1.946.257,3.308,3.308,0,0,1,1.193.666,2.139,2.139,0,0,1,.6.926,3.423,3.423,0,0,1,.162,1.046,3.115,3.115,0,0,1-.422,1.663,2.756,2.756,0,0,1-1.387,1.075l2.226,4.6H570.15l-2-4.286a3.1,3.1,0,0,1-.415.036c-.148.006-.28.008-.4.008h-2.091v4.241h-1.351Zm3.6,4.859a4.151,4.151,0,0,0,1.174-.137,1.758,1.758,0,0,0,.725-.388,1.286,1.286,0,0,0,.371-.607,2.809,2.809,0,0,0,.105-.8,2.283,2.283,0,0,0-.118-.761,1.3,1.3,0,0,0-.409-.567,2.019,2.019,0,0,0-.778-.358,5.381,5.381,0,0,0-1.248-.12h-2.077v3.742Zm11.858,3.3a2.652,2.652,0,0,1-.987,1.691,3.645,3.645,0,0,1-2.277.616,3.448,3.448,0,0,1-2.686-1.022,4.093,4.093,0,0,1-.936-2.861,5.051,5.051,0,0,1,.268-1.705,3.4,3.4,0,0,1,.748-1.248,3.235,3.235,0,0,1,1.151-.767,3.9,3.9,0,0,1,1.454-.266,3.835,3.835,0,0,1,1.526.274,2.768,2.768,0,0,1,1.048.751,3.154,3.154,0,0,1,.607,1.14,4.909,4.909,0,0,1,.2,1.448v.63h-5.7a3.378,3.378,0,0,0,.156,1.039,2.455,2.455,0,0,0,.447.831,2.013,2.013,0,0,0,.719.555,2.342,2.342,0,0,0,.995.2,2.27,2.27,0,0,0,1.408-.35,1.754,1.754,0,0,0,.609-.953Zm-1.172-2.251a3.66,3.66,0,0,0-.118-.961,2.012,2.012,0,0,0-.371-.738,1.662,1.662,0,0,0-.653-.479,2.424,2.424,0,0,0-.964-.173,2.1,2.1,0,0,0-1.6.6,2.836,2.836,0,0,0-.672,1.75Zm3.828,2.165a1.439,1.439,0,0,0,.674,1.081,2.981,2.981,0,0,0,1.478.308,2.284,2.284,0,0,0,1.387-.32,1.038,1.038,0,0,0,.409-.854,1.612,1.612,0,0,0-.053-.409.752.752,0,0,0-.2-.344,1.281,1.281,0,0,0-.415-.266,3.159,3.159,0,0,0-.7-.188l-.98-.141a7.521,7.521,0,0,1-1.143-.259,2.9,2.9,0,0,1-.831-.407,1.618,1.618,0,0,1-.512-.618,2.075,2.075,0,0,1-.171-.881,1.828,1.828,0,0,1,.23-.917,2.068,2.068,0,0,1,.639-.681,3.078,3.078,0,0,1,.963-.43,4.6,4.6,0,0,1,1.21-.152,5.178,5.178,0,0,1,1.389.158,2.692,2.692,0,0,1,.911.43,1.928,1.928,0,0,1,.55.645,3.779,3.779,0,0,1,.3.789l-1.172.185a3.094,3.094,0,0,0-.238-.529,1.155,1.155,0,0,0-.356-.379,1.67,1.67,0,0,0-.542-.23,3.378,3.378,0,0,0-.795-.078,3.545,3.545,0,0,0-.89.093,1.671,1.671,0,0,0-.571.249.9.9,0,0,0-.392.761,1.359,1.359,0,0,0,.057.409.7.7,0,0,0,.223.314,1.471,1.471,0,0,0,.447.238,4.182,4.182,0,0,0,.727.171l1.111.173a3.8,3.8,0,0,1,1.937.744,1.988,1.988,0,0,1,.586,1.549,1.943,1.943,0,0,1-.194.866,1.9,1.9,0,0,1-.578.687,2.878,2.878,0,0,1-.965.46,4.958,4.958,0,0,1-1.349.164,6.142,6.142,0,0,1-1.3-.129,3.369,3.369,0,0,1-1.06-.409,2.179,2.179,0,0,1-.742-.738,2.412,2.412,0,0,1-.329-1.117Zm13.327.086a2.652,2.652,0,0,1-.987,1.691,3.65,3.65,0,0,1-2.277.616,3.453,3.453,0,0,1-2.688-1.022,4.1,4.1,0,0,1-.936-2.861,5.053,5.053,0,0,1,.268-1.705,3.44,3.44,0,0,1,.75-1.248,3.2,3.2,0,0,1,1.151-.767A3.9,3.9,0,0,1,592.07,420a3.842,3.842,0,0,1,1.526.274,2.785,2.785,0,0,1,1.048.751,3.185,3.185,0,0,1,.607,1.14,4.975,4.975,0,0,1,.2,1.448v.63h-5.7a3.313,3.313,0,0,0,.156,1.039,2.451,2.451,0,0,0,.445.831,2.015,2.015,0,0,0,.719.555,2.352,2.352,0,0,0,1,.2,2.279,2.279,0,0,0,1.408-.35,1.764,1.764,0,0,0,.607-.953Zm-1.174-2.251a3.575,3.575,0,0,0-.118-.961,1.98,1.98,0,0,0-.371-.738,1.67,1.67,0,0,0-.651-.479,2.427,2.427,0,0,0-.966-.173,2.1,2.1,0,0,0-1.6.6,2.825,2.825,0,0,0-.675,1.75Zm3-3.082h1.277v1.147a3.112,3.112,0,0,1,1.01-.947,2.449,2.449,0,0,1,1.231-.329,3.682,3.682,0,0,1,.681.057l-.162,1.162c-.1-.019-.2-.036-.3-.051a2.309,2.309,0,0,0-1.054.1,1.928,1.928,0,0,0-.7.409,2,2,0,0,0-.512.63,1.774,1.774,0,0,0-.185.831v4.4h-1.292Zm5.2,0h1.5l2.285,6.021,2.332-6.021h1.423l-3.086,7.41h-1.379Zm14.674,5.333a2.652,2.652,0,0,1-.986,1.691,3.646,3.646,0,0,1-2.277.616,3.448,3.448,0,0,1-2.686-1.022,4.092,4.092,0,0,1-.936-2.861,5,5,0,0,1,.268-1.705,3.4,3.4,0,0,1,.748-1.248,3.235,3.235,0,0,1,1.151-.767,3.9,3.9,0,0,1,1.455-.266,3.835,3.835,0,0,1,1.526.274,2.769,2.769,0,0,1,1.048.751,3.155,3.155,0,0,1,.607,1.14,4.907,4.907,0,0,1,.2,1.448v.63h-5.7a3.373,3.373,0,0,0,.156,1.039,2.486,2.486,0,0,0,.445.831,2.053,2.053,0,0,0,.719.555,2.359,2.359,0,0,0,1,.2,2.282,2.282,0,0,0,1.41-.35,1.775,1.775,0,0,0,.607-.953Zm-1.172-2.251a3.573,3.573,0,0,0-.118-.961,1.983,1.983,0,0,0-.373-.738,1.641,1.641,0,0,0-.651-.479,2.428,2.428,0,0,0-.966-.173,2.1,2.1,0,0,0-1.6.6,2.838,2.838,0,0,0-.672,1.75Z" transform="translate(-368.075 -368.284)" fill="#fff"/>
    <path id="Path_2" data-name="Path 2" d="M400.6,408.4v.487h-1.682v-1.864H400.6Zm2.764-1.377h-1.684v1.864h1.684v-1.864Zm6.834,15.893h1.684v-1.868H410.2Zm-2.764,0h1.684v-1.868h-1.684Zm41.592-17.643h1.745V419.6H402.678a6.487,6.487,0,0,1-4.3-1.275,4.442,4.442,0,0,1-1.518-3.6,4.2,4.2,0,0,1,1.2-3.152,4.41,4.41,0,0,1,3.208-1.164,4.088,4.088,0,0,1,3.088,1.115,4.51,4.51,0,0,1,1.067,3.24v3.291h4.695v-7.323h1.748v7.323h11.011V415.79a4.923,4.923,0,0,0-.4-2.237,2.238,2.238,0,0,0-1.3-1.086,7.66,7.66,0,0,0-2.431-.31h-3.761v-1.345l7-5.54h2.325l-6.9,5.439h1.661a6.34,6.34,0,0,1,4.239,1.155,4.727,4.727,0,0,1,1.309,3.721v2.469h5.11V405.273h1.745v12.783h4.716v-3.291a4.366,4.366,0,0,1,1.132-3.2,4.2,4.2,0,0,1,3.147-1.157,4.312,4.312,0,0,1,3.126,1.134,4,4,0,0,1,1.174,3.021,4.249,4.249,0,0,1-.5,2.02,3.781,3.781,0,0,1-1.391,1.471h6.147Zm-45.351,9.733a3.906,3.906,0,0,0-.594-2.416,2.232,2.232,0,0,0-1.878-.755,2.469,2.469,0,0,0-1.923.744,3.014,3.014,0,0,0-.675,2.106,3.2,3.2,0,0,0,.966,2.5,4.024,4.024,0,0,0,2.8.873h1.309Zm39.326-.32a3.052,3.052,0,0,0-.664-2.106,2.4,2.4,0,0,0-1.891-.744q-2.514,0-2.513,2.93v3.291h1.412a3.824,3.824,0,0,0,2.7-.883,3.217,3.217,0,0,0,.955-2.488m10.637,4.918h1.746V405.273h-1.746Zm12.611-12.581h-1.724v1.864h1.724v-1.864Zm2.576,15.893h1.682v-1.868h-1.682Zm2.764,0h1.682v-1.868H471.59Zm1.161-12.444-1.577.683a2.831,2.831,0,0,1,.373,1.484v5.418h-5.255v-7.323h-1.727v9.994a1.912,1.912,0,0,1-.363,1.292,1.486,1.486,0,0,1-1.174.413,8.4,8.4,0,0,1-1.309-.179l-.289,1.364a6.974,6.974,0,0,0,1.868.28,2.876,2.876,0,0,0,2.256-.824,3.631,3.631,0,0,0,.738-2.487V419.6h7v-7.146a4.475,4.475,0,0,0-.124-1.153,2.435,2.435,0,0,0-.417-.833m6.794-3.449h-1.724v1.864h1.724v-1.864Zm16.932,11.034h-9.952v-3.171a3.442,3.442,0,0,1,.624-2.306,2.63,2.63,0,0,1,2.055-.7,3.031,3.031,0,0,1,1.756.4,2.418,2.418,0,0,1,.8,1.446l1.684-.181a3.663,3.663,0,0,0-1.279-2.378,5.884,5.884,0,0,0-6.274.32,4.306,4.306,0,0,0-1.113,3.24v3.331h-5.192v-7.323h-1.724v9.994a1.912,1.912,0,0,1-.365,1.292,1.484,1.484,0,0,1-1.172.413,8.383,8.383,0,0,1-1.311-.179l-.289,1.364a6.975,6.975,0,0,0,1.87.28,2.87,2.87,0,0,0,2.253-.824,3.63,3.63,0,0,0,.738-2.487V419.6h18.635V405.273h-1.745Zm4.612,1.547h1.743V405.273H501.09Zm17.824,3.312h1.724v-1.868h-1.724Zm8.664-8.03a3.443,3.443,0,0,1,.622-2.306,2.629,2.629,0,0,1,2.057-.7,3.036,3.036,0,0,1,1.756.4,2.417,2.417,0,0,1,.8,1.446l1.682-.181a3.644,3.644,0,0,0-1.277-2.378,5.884,5.884,0,0,0-6.274.32,4.315,4.315,0,0,0-1.111,3.24v3.331h-5.194v-7.323h-1.746v7.323h-4.986v-1.885a6.348,6.348,0,0,0-1.278-4.315,4.8,4.8,0,0,0-3.792-1.446,8.7,8.7,0,0,0-2.783.443l.415,1.484a6.379,6.379,0,0,1,2.224-.4A3.114,3.114,0,0,1,511.31,413a5.479,5.479,0,0,1,.831,3.371v1.684H504.87V419.6h29.958v-1.547h-7.25Zm23.87-3.51h-2.264v-1.065a.792.792,0,0,1,.185-.563.678.678,0,0,1,.521-.2.686.686,0,0,1,.479.152.857.857,0,0,1,.228.491l.809-.1a1.494,1.494,0,0,0-.476-.953,1.945,1.945,0,0,0-2.214.07,1.42,1.42,0,0,0-.4,1.086v1.083h-.479v.761h3.615Zm28.752-6.1h1.745V419.6H546.254a5.678,5.678,0,0,1-3.822-1.166,4.131,4.131,0,0,1-1.351-3.31,4.311,4.311,0,0,1,1.113-3.1,4.544,4.544,0,0,1,3.063-1.334l.23,1.5a3.117,3.117,0,0,0-2.026.841,2.908,2.908,0,0,0-.656,2.047,2.73,2.73,0,0,0,.9,2.2,3.837,3.837,0,0,0,2.566.772H554v-12.8h1.745v12.8H560.9V405.273h1.745v12.783h4.716v-3.291a4.365,4.365,0,0,1,1.132-3.2,4.2,4.2,0,0,1,3.147-1.157,4.312,4.312,0,0,1,3.126,1.134,4,4,0,0,1,1.174,3.021,4.249,4.249,0,0,1-.5,2.02,3.771,3.771,0,0,1-1.393,1.471H580.2Zm-6.023,9.413a3.052,3.052,0,0,0-.666-2.106,2.4,2.4,0,0,0-1.891-.744q-2.514,0-2.513,2.93v3.291h1.413a3.824,3.824,0,0,0,2.7-.883,3.218,3.218,0,0,0,.957-2.488m10.635,4.918h1.745V405.273h-1.745Zm15.29-12.581H598.42v1.864H600.1v-1.864Zm-2.764,0h-1.682v1.864h1.682v-1.864Zm6.837,15.893h1.682v-1.868h-1.682Zm2.764,0h1.68v-1.868h-1.68Zm38.993-8.23A4.483,4.483,0,0,1,644.4,418.3a6.376,6.376,0,0,1-4.258,1.3h-40.72a6.487,6.487,0,0,1-4.3-1.275,4.442,4.442,0,0,1-1.518-3.6,4.2,4.2,0,0,1,1.2-3.152A4.415,4.415,0,0,1,598,410.41a4.072,4.072,0,0,1,3.084,1.115,4.494,4.494,0,0,1,1.071,3.24v3.291h4.695v-7.323H608.6v7.323h4.716v-3.291a4.365,4.365,0,0,1,1.132-3.2,4.2,4.2,0,0,1,3.147-1.157,4.315,4.315,0,0,1,3.126,1.134,4.008,4.008,0,0,1,1.174,3.021,4.228,4.228,0,0,1-.5,2.02,3.754,3.754,0,0,1-1.391,1.471h10.968v-3.171a3.6,3.6,0,0,0-.58-2.336,2.528,2.528,0,0,0-1.994-.673,3.2,3.2,0,0,0-1.819.411,2.419,2.419,0,0,0-.862,1.436l-1.682-.181a3.537,3.537,0,0,1,1.36-2.369,5.176,5.176,0,0,1,3.025-.763,4.545,4.545,0,0,1,3.272,1.025,4.357,4.357,0,0,1,1.048,3.232v3.39h4.613v-3.27a4.421,4.421,0,0,1,1.121-3.23,4.875,4.875,0,0,1,6.295.011,4.182,4.182,0,0,1,1.164,3.118m-45.518.32a3.921,3.921,0,0,0-.593-2.416,2.242,2.242,0,0,0-1.88-.755,2.469,2.469,0,0,0-1.923.744,3.024,3.024,0,0,0-.674,2.106,3.191,3.191,0,0,0,.967,2.5,4.019,4.019,0,0,0,2.793.873h1.309Zm19.715-.32a3.051,3.051,0,0,0-.664-2.106,2.4,2.4,0,0,0-1.891-.744q-2.514,0-2.513,2.93v3.291h1.413a3.824,3.824,0,0,0,2.7-.883,3.217,3.217,0,0,0,.955-2.488m24.039,0a3.091,3.091,0,0,0-.654-2.106,2.38,2.38,0,0,0-1.883-.744q-2.533,0-2.534,2.951v3.27h1.33a3.986,3.986,0,0,0,2.772-.873,3.191,3.191,0,0,0,.968-2.5" transform="translate(-396.86 -381.751)" fill="#fff"/>
    <path id="Path_3" data-name="Path 3" d="M542.213,433.673,555.471,446.8H581.59a41.491,41.491,0,0,0-38.6-52.679,41.36,41.36,0,0,1-.776,39.556" transform="translate(-235.797 -394.092)" fill="#ffd200"/>
    <path id="Path_4" data-name="Path 4" d="M570.322,427.676q.471-1.676.8-3.4l-16.4-12.9a5.662,5.662,0,0,1,.946,1.012c2.454,3.345,1,9.037-3.293,15.292Z" transform="translate(-224.528 -374.972)" fill="#af6e05"/>
    <path id="Path_5" data-name="Path 5" d="M576.991,413.363c-4.571-6.242-20.994-1.988-36.683,9.5-2.58,1.889-4.979,3.862-7.161,5.791H573.7c4.286-6.257,5.742-11.947,3.293-15.294" transform="translate(-245.842 -375.953)" fill="#ef9700"/>
    <path id="Path_6" data-name="Path 6" d="M523.838,434.208h53.706l-13.258-13.123-5.247-15.608a.5.5,0,0,1,.017.124c0,1.927-11.127,3.489-24.852,3.489-3.316,0-6.546-.093-9.438-.257a41.645,41.645,0,0,0-.928,25.375" transform="translate(-257.87 -381.504)" fill="#978d8b"/>
    <path id="Path_7" data-name="Path 7" d="M532.9,403.881c-2.173,0-4.347.038-6.358.114a41.148,41.148,0,0,0-3.08,6.607c2.892.164,6.122.257,9.438.257,13.724,0,24.853-1.562,24.853-3.489s-11.129-3.489-24.853-3.489" transform="translate(-256.57 -383.272)" fill="#b6a9a4"/>
    <path id="Path_8" data-name="Path 8" d="M602.43,426.824v-1.36h-1.362v1.36h-1.362v1.36h-1.36v-1.36h-1.364v-1.36h-1.36v1.36h-1.362v1.36H592.9v-1.36h-1.362v-1.36h-1.359v1.36h-1.362v1.36h-1.362v-1.36h-1.362v-1.36H584.73v1.36h-1.36v1.36h-1.362v-1.36h-1.362v-1.36h-1.362v1.36h-1.362v1.36h-1.36v-1.36H575.2v-1.36H573.84v1.36h-1.362v1.36h-1.362v-1.36h-1.362v-1.36h-1.36v1.36h-1.362v1.36h-1.362v-1.36h-1.362v-1.36h-1.36v1.36h-1.362v1.36h-1.362v-1.36h-1.362v-1.36H557.5v1.36h-1.36v1.36h-2.051l-.379-14.413v-1.36H552.38v-1.36h-1.362v-1.362h-1.362v1.362h-1.362v1.358h-1.362v-1.358h-1.36v-1.362h-1.362v1.362h-1.362v1.358h-1.362v-1.358h-1.362v-1.362h-1.36v1.362H537.4v1.358l-1.362,0v1.36l-.381,14.413h-2.015v-1.36h-1.36v-1.36h-1.362v1.36H529.56v1.36H528.2v-1.36h-1.362v-1.36h-1.36v1.36h-1.362v1.36h-1.26a41.467,41.467,0,0,0,80.847-1.36Z" transform="translate(-257.246 -376.837)" fill="#6f635f"/>
    <path id="Path_9" data-name="Path 9" d="M546.058,426.165a.78.78,0,0,1,.059.812c0-.116.059-.232-.059-.291-.057,0-.057.059-.057.116a.3.3,0,0,0-.116-.23,2.878,2.878,0,0,0-.116.987c-.116-.059,0-.291-.116-.232-.175.057-.059.348,0,.523a2.9,2.9,0,0,1-.118-2.5,5.3,5.3,0,0,1,1.047-1.278c.057-.057.173-.219,0-.232-.19-.015-.291.116-.35.289l-.116-.114c-.059.173-.175.348-.232.521,0-.059,0-.232-.059-.232-.173.059-.173.348-.232.523,0-.059,0-.232-.059-.175-.173.116-.173.407-.232.639,0-.057.028-.253-.057-.232-.179.042-.118.291-.118.464a.2.2,0,0,0-.057-.114c-.173.173-.116.407-.116.58-.116-.059-.057-.232-.116-.232-.175.173-.116.407-.175.639-.057-.116.059-.291-.057-.407a1.888,1.888,0,0,0-.175.523c-.057-.175.059-.348-.057-.464-.118.173,0,.4-.059.58a2.65,2.65,0,0,1,.059-1.509,4.2,4.2,0,0,1,.407-.7,3.089,3.089,0,0,1,.636-.58c.35-.291.814-.348,1.1-.7-.116-.116-.291.059-.407-.059-.059.059-.059.059-.116.118,0-.059,0-.118-.059-.118a.3.3,0,0,0-.232.118c0-.059,0-.118-.057-.118-.118,0-.175.118-.234.175a.208.208,0,0,0-.057-.116c-.059.059-.234.059-.234.232-.057-.057-.057-.057-.114-.116a.3.3,0,0,0-.116.234c0-.059,0-.118-.059-.118a.311.311,0,0,0-.116.234l-.059-.059a.837.837,0,0,0-.114.348.205.205,0,0,0-.059-.116c-.116.116-.059.291-.116.407a1.246,1.246,0,0,1,.814-1.512,2.482,2.482,0,0,1,2.03-.057.2.2,0,0,0,.059-.116c-.059-.175-.232-.523-.464-.289a.216.216,0,0,1,.057-.175c-.116-.175-.289.057-.407,0l.059-.059c-.116-.173-.232.059-.348,0l.057-.059c-.019-.063-.316.034-.348.175.013-.055.057-.232-.059-.232-.173.057-.232.291-.348.407a.474.474,0,0,1,.232-.58,1.809,1.809,0,0,1,1.625-.234,1.358,1.358,0,0,1,.7.7,2.844,2.844,0,0,0,.232-.755.209.209,0,0,0,.059.173c.116-.232.059-.523.175-.755.116.232.057.523.173.755a.214.214,0,0,0,.057-.173,3.023,3.023,0,0,0,.234.755,1.35,1.35,0,0,1,.93-.755c.637-.116,1.684.057,1.625.871-.116-.116-.167-.384-.348-.407-.091-.01-.08.183-.059.236a.453.453,0,0,0-.232-.236c-.07-.046-.116,0-.116.057s.057.059.057.118c-.116-.059-.23-.175-.348-.059.057,0,.057.059.057.116a.9.9,0,0,0-.346-.116c-.118.059.057.175,0,.234-.059-.118-.183-.074-.234-.059-.158.044-.348.464-.291.464a3.051,3.051,0,0,1,2.15.057,1.484,1.484,0,0,1,.7.525,1.855,1.855,0,0,1,.118.987c-.118-.116,0-.291-.118-.407a.208.208,0,0,0-.057.116c0-.232-.175-.348-.291-.523-.057,0-.059.089-.057.118a.334.334,0,0,0-.116-.234l-.118.116c0-.173-.173-.173-.232-.232a.208.208,0,0,0-.057.116c-.059-.057-.118-.116-.175-.175-.116,0-.175.118-.291,0-.057-.057-.116,0-.116.118-.059-.059-.059-.059-.116-.118-.116.118-.289-.057-.407.059.523.466,1.278.639,1.744,1.278a2.577,2.577,0,0,1,.464,2.207c-.057-.175.057-.407-.057-.58-.118.116,0,.289-.059.464a1.954,1.954,0,0,0-.173-.523c-.118.116-.061.291-.061.407-.057-.232,0-.466-.173-.639-.057,0,0,.173-.116.232,0-.173.059-.407-.116-.58a.2.2,0,0,0-.059.114c0-.173.059-.4-.116-.464-.116,0-.057.175-.057.232-.059-.232-.072-.5-.234-.639-.053-.044-.057.116-.057.175-.059-.175-.059-.464-.232-.523-.059,0-.059.173-.059.232-.057-.173-.175-.348-.232-.521-.059.057-.059.057-.116.114a.527.527,0,0,0-.348-.348c-.059,0-.059.116-.059.175.348.464.814.812,1.1,1.277a2.96,2.96,0,0,1-.116,2.614c.059-.175.175-.466,0-.523-.116-.059,0,.173-.116.232a2.877,2.877,0,0,0-.116-.987.3.3,0,0,0-.116.23c0-.057-.008-.116-.059-.116-.107.006-.057.175-.057.291a1.307,1.307,0,0,1,.116-.928.85.85,0,0,0-.116-.35.3.3,0,0,0-.116.232,3.487,3.487,0,0,0-.116-.755c-.118.059-.057.175-.057.234-.118-.175.057-.409-.118-.525-.057,0,0,.175-.116.234,0-.175.069-.531-.105-.523-.04,0-.068.173-.068.232,0-.175-.059-.464-.234-.523-.057,0-.006.169-.057.232,0,0-.042.042-.072.044.019,0-.008-.152-.1-.16-.059,0-.116,0-.116.057.057.175.291.175.348.35,0,.173.175.232.175.407a.219.219,0,0,0-.348-.059c.289.116.58.291.521.641a.384.384,0,0,0-.232-.293c-.057,0-.173,0-.173.059.232.234.464.466.4.814a.32.32,0,0,0-.173-.291.2.2,0,0,0-.116.059,1.481,1.481,0,0,1,.232,1.1c0-.116.042-.268-.057-.232s-.059.175-.059.291l-.059-.059c-.116.175.059.291,0,.464s-.057.291-.116.466c-.057-.175.059-.407-.057-.58a1.836,1.836,0,0,0-.116.809c0-.055-.021-.116-.059-.114-.109.006,0,.232-.116.289a8.859,8.859,0,0,0-.116-1.218c.057,0,.116,0,.116-.057,0-.116.055-.327-.059-.35s0,.234-.116.291c0-.232,0-.466-.173-.523-.118-.059.057.175-.118.232-.232.059-.116-.175-.232-.291a39.91,39.91,0,0,0,0,5.875c0,.291.175.582.116.873a.511.511,0,0,0-.057.407.931.931,0,0,0,.173.521c.061.234-.173.466-.116.7a6.533,6.533,0,0,0,.639,1.22h-2.323c.234-.466.641-.873.582-1.4,0-.173-.116-.348-.059-.523.291-.464.059-.871.118-1.393a.838.838,0,0,0,.116-.348,50.577,50.577,0,0,0,0-5.934c-.116.059-.059.175-.059.234-.057.116-.232.057-.291-.059.059,0,.059-.059.059-.116-.116-.173-.116.057-.175.057a.622.622,0,0,0-.057.466c-.116-.057-.006-.31-.116-.291s-.059.234-.059.35c0,.057.059.057.116.057a8.547,8.547,0,0,0-.116,1.218c-.116-.057,0-.253-.105-.287-.042-.017-.07.057-.07.112a1.835,1.835,0,0,0-.116-.809c-.114.173,0,.4-.057.58-.057-.175-.057-.291-.118-.466s.118-.289,0-.464l-.057.059c0-.116.053-.255-.057-.291s-.059.116-.059.232a1.154,1.154,0,0,1,.234-1.046c.057-.057,0-.116-.061-.116-.173,0-.173.175-.23.291-.059-.348.173-.58.4-.814,0-.059-.114-.059-.175-.059a.39.39,0,0,0-.23.293c-.059-.35.23-.525.521-.641a.219.219,0,0,0-.348.059,1.489,1.489,0,0,1,.464-.582.3.3,0,0,0-.232-.116c.116-.059,0-.173.116-.232,0-.057-.057-.057-.116-.057a.71.71,0,0,0-.289.58c0-.059,0-.232-.059-.232-.173.116-.116.348-.116.523-.116-.059,0-.234-.116-.234-.173.116,0,.35-.116.525,0-.059.057-.175-.057-.234a3.362,3.362,0,0,0-.118.755.3.3,0,0,0-.116-.232c-.059.175-.175.291-.059.466m-2.665,8.778a15.144,15.144,0,0,0-7.2-.407c4.121.116,8.42,1.219,11.438,4.123q-1.218,1.132-2.437,2.266c-.234-.35-.234-.814-.523-1.164a2.1,2.1,0,0,0-.757-.464.89.89,0,0,0-1.1.7.979.979,0,0,0,.523.987,1.435,1.435,0,0,0,.987-.175c.175-.057.35.35.234.525a2.151,2.151,0,0,1-1.162.812.886.886,0,1,0-1.509.93.829.829,0,0,0,.58.4,4.048,4.048,0,0,0,2.846-1.159,2.338,2.338,0,0,0,1.568,1.1,1.113,1.113,0,0,0,1.278-.755.98.98,0,0,0-.525-.989,1.141,1.141,0,0,0-.871.059c-.289.116-.173.639-.4.639-.175,0-.525-.232-.407-.407a14.382,14.382,0,0,1,2.555-2.437c.871.811,1.975,1.393,2.555,2.5.059.057-.232.348-.407.348-.232.059-.059-.232-.173-.407a.773.773,0,0,0-.58-.348.9.9,0,0,0-1.048.7.812.812,0,0,0,.116.639c.814,1.043,2.207.175,2.732-.639.869.7,2.032,1.45,3.135.987a.791.791,0,0,0,.291-1.161.924.924,0,0,0-1.511,0,2.142,2.142,0,0,1-1.161-.812c-.116-.175.059-.582.175-.525a.969.969,0,0,0,1.566-.464.9.9,0,0,0-.694-1.046,1.325,1.325,0,0,0-1.164.464c-.291.35-.291.814-.523,1.164l-2.439-2.266c3.021-2.9,7.317-4.007,11.441-4.123a14.626,14.626,0,0,0-12.254,3.2,16.62,16.62,0,0,0-5.167-2.789" transform="translate(-242.468 -364.502)" fill="#b6a9a4"/>
    <path id="Path_10" data-name="Path 10" d="M532.981,412.391v4.079h1.36v-4.079Z" transform="translate(-246.026 -373.843)" fill="#978d8b"/>
    <path id="Path_11" data-name="Path 11" d="M530.382,413.684v4.079h1.36v-4.079Z" transform="translate(-248.906 -372.409)" fill="#978d8b"/>
    <path id="Path_12" data-name="Path 12" d="M535.58,414.49v4.079h1.362V414.49Z" transform="translate(-243.147 -371.517)" fill="#978d8b"/>
    <path id="Path_13" data-name="Path 13" d="M524.927,414.824c2.011-.074,4.185-.114,6.358-.114,13.43,0,24.373,1.5,24.835,3.367v0l5.247,15.608a41.37,41.37,0,0,0,.778-39.558q-.654-.019-1.315-.019a41.442,41.442,0,0,0-35.9,20.718" transform="translate(-254.951 -394.104)" fill="#f8e5a3"/>
  </g>
</svg>
