<svg id="Logo" xmlns="http://www.w3.org/2000/svg" xmlns:xlink="http://www.w3.org/1999/xlink" width="336.229" height="63.494" viewBox="0 0 336.229 63.494">
  <defs>
    <clipPath id="clip-path">
      <rect id="Rectangle_6" data-name="Rectangle 6" width="336.229" height="63.494" fill="none"/>
    </clipPath>
  </defs>
  <path id="Path_1" data-name="Path 1" d="M7.757,41.074,5.111,47.961H5.086L2.4,41.074H.452v8.963H1.668V42.543h.024l2.962,7.494h.8l2.975-7.494h.026v7.494H9.707V41.074Z" transform="translate(-0.001 -0.801)" fill="#002850"/>
  <rect id="Rectangle_1" data-name="Rectangle 1" width="1.19" height="6.001" transform="translate(11.833 43.222)" fill="#002850"/>
  <g id="Group_2" data-name="Group 2" transform="translate(0 0)">
    <g id="Group_1" data-name="Group 1" clip-path="url(#clip-path)">
      <path id="Path_2" data-name="Path 2" d="M12.44,41.1a.765.765,0,0,0-.552.218.723.723,0,0,0-.227.542.707.707,0,0,0,.227.53.762.762,0,0,0,.552.219A.806.806,0,0,0,13,42.4a.694.694,0,0,0,.233-.537A.714.714,0,0,0,13,41.317a.789.789,0,0,0-.559-.218" transform="translate(-0.018 -0.699)" fill="#002850"/>
      <path id="Path_3" data-name="Path 3" d="M19.933,44.587a2.03,2.03,0,0,0-.7-.517,2.367,2.367,0,0,0-1-.194,2.29,2.29,0,0,0-.634.087,2.226,2.226,0,0,0-1.006.6,1.712,1.712,0,0,0-.31.442H16.25c0-.125,0-.28-.013-.467s-.022-.355-.038-.505H15.072c.016.192.03.412.038.661s.014.453.014.611v4.637h1.189V46.805a2.115,2.115,0,0,1,.449-1.415,1.447,1.447,0,0,1,1.158-.53,1.391,1.391,0,0,1,.684.149,1.122,1.122,0,0,1,.417.4,1.647,1.647,0,0,1,.21.573,3.971,3.971,0,0,1,.057.686v3.278h1.19V46.282a3.2,3.2,0,0,0-.134-.936,2.062,2.062,0,0,0-.411-.76" transform="translate(-0.023 -0.746)" fill="#002850"/>
      <rect id="Rectangle_2" data-name="Rectangle 2" width="1.19" height="5.908" transform="translate(22.48 43.292)" fill="#002850"/>
      <path id="Path_4" data-name="Path 4" d="M23.1,41.1a.765.765,0,0,0-.552.218.723.723,0,0,0-.227.542.707.707,0,0,0,.227.53.762.762,0,0,0,.552.219.81.81,0,0,0,.56-.212.7.7,0,0,0,.232-.537.717.717,0,0,0-.232-.542.794.794,0,0,0-.56-.218" transform="translate(-0.035 -0.699)" fill="#002850"/>
      <path id="Path_5" data-name="Path 5" d="M29.324,47.035a2.568,2.568,0,0,0-.64-.343,6.719,6.719,0,0,0-.8-.237,4.217,4.217,0,0,1-1.026-.33.589.589,0,0,1-.341-.554.636.636,0,0,1,.095-.356.791.791,0,0,1,.253-.236,1.19,1.19,0,0,1,.361-.137,1.889,1.889,0,0,1,.405-.044,1.649,1.649,0,0,1,.823.205,1.557,1.557,0,0,1,.57.53l.823-.685a2.064,2.064,0,0,0-.931-.723,3.268,3.268,0,0,0-2.083-.143,2.255,2.255,0,0,0-.722.323,1.7,1.7,0,0,0-.513.56,1.631,1.631,0,0,0-.2.817,1.4,1.4,0,0,0,.158.692,1.5,1.5,0,0,0,.412.468,2.1,2.1,0,0,0,.563.293q.31.1.614.18a5.462,5.462,0,0,1,1.171.375.645.645,0,0,1,.4.61.718.718,0,0,1-.373.673,1.261,1.261,0,0,1-.379.144,2.184,2.184,0,0,1-.437.043,1.875,1.875,0,0,1-.931-.237,1.939,1.939,0,0,1-.665-.586l-.848.711a2.591,2.591,0,0,0,1.083.8,3.54,3.54,0,0,0,1.335.262,3.9,3.9,0,0,0,.887-.1,2.206,2.206,0,0,0,.765-.33,1.729,1.729,0,0,0,.539-.592,1.788,1.788,0,0,0,.2-.885,1.427,1.427,0,0,0-.152-.674,1.5,1.5,0,0,0-.424-.492" transform="translate(-0.039 -0.746)" fill="#002850"/>
      <path id="Path_6" data-name="Path 6" d="M32.756,42.316H31.579v1.7H30.427v.959h1.152v3.2a1.909,1.909,0,0,0,.449,1.384,1.729,1.729,0,0,0,1.3.461,3.3,3.3,0,0,0,.538-.043,2.986,2.986,0,0,0,.475-.119L34.3,48.9a1.391,1.391,0,0,1-.342.1,1.936,1.936,0,0,1-.354.034.82.82,0,0,1-.646-.229,1.151,1.151,0,0,1-.2-.764v-3.07h1.6v-.959h-1.6Z" transform="translate(-0.047 -0.72)" fill="#002850"/>
      <path id="Path_7" data-name="Path 7" d="M37.493,44.193a2.045,2.045,0,0,0-.74.841h-.038c0-.125,0-.284-.014-.48s-.02-.368-.037-.517H35.537c.017.191.029.411.038.661s.013.452.013.61v4.637h1.19v-3.1a2.509,2.509,0,0,1,.1-.718,1.766,1.766,0,0,1,.311-.6,1.518,1.518,0,0,1,.525-.418,1.67,1.67,0,0,1,.748-.155,2.249,2.249,0,0,1,.544.062l.05-1.085a1.865,1.865,0,0,0-.468-.05,1.965,1.965,0,0,0-1.1.318" transform="translate(-0.055 -0.746)" fill="#002850"/>
      <path id="Path_8" data-name="Path 8" d="M42.481,48.678h-.025l-1.862-4.637H39.265l2.571,5.908-.38.985a2.508,2.508,0,0,1-.417.729.892.892,0,0,1-.7.256,1.889,1.889,0,0,1-.594-.1l-.115,1.035a2.811,2.811,0,0,0,.4.069c.131.013.261.018.386.018a2.343,2.343,0,0,0,.766-.111,1.754,1.754,0,0,0,.564-.318,2.046,2.046,0,0,0,.417-.5,4.868,4.868,0,0,0,.329-.666l2.911-7.3H44.139Z" transform="translate(-0.061 -0.749)" fill="#002850"/>
      <path id="Path_9" data-name="Path 9" d="M54.885,44.748a3.158,3.158,0,0,0-1.031-.642,3.654,3.654,0,0,0-2.557,0,3.074,3.074,0,0,0-1.026.642,2.983,2.983,0,0,0-.677.978,3.11,3.11,0,0,0-.248,1.253,3.149,3.149,0,0,0,.248,1.259,2.981,2.981,0,0,0,1.7,1.64,3.668,3.668,0,0,0,2.557,0,3.11,3.11,0,0,0,1.031-.649,3.038,3.038,0,0,0,.685-.991,3.166,3.166,0,0,0,.246-1.259,3.127,3.127,0,0,0-.246-1.253,2.974,2.974,0,0,0-.685-.978m-.443,3.045a2.111,2.111,0,0,1-.387.684,1.835,1.835,0,0,1-.628.472,2.2,2.2,0,0,1-1.714,0,1.811,1.811,0,0,1-.629-.472,2.111,2.111,0,0,1-.387-.684,2.507,2.507,0,0,1,0-1.616,2.039,2.039,0,0,1,.387-.677,1.858,1.858,0,0,1,.629-.466,2.21,2.21,0,0,1,1.714,0,1.884,1.884,0,0,1,.628.466,2.039,2.039,0,0,1,.387.677,2.507,2.507,0,0,1,0,1.616" transform="translate(-0.076 -0.746)" fill="#002850"/>
      <path id="Path_10" data-name="Path 10" d="M58.922,40.5a1.865,1.865,0,0,0-.695.511,1.969,1.969,0,0,0-.393.766,3.653,3.653,0,0,0-.121.966v1.235h-1.19v.96h1.19v4.947H58.9V44.938H60.3v-.96H58.9V42.743a3.508,3.508,0,0,1,.039-.529,1.306,1.306,0,0,1,.151-.455.844.844,0,0,1,.323-.318,1.106,1.106,0,0,1,.551-.119,1.883,1.883,0,0,1,.316.025c.093.017.187.037.28.063L60.7,40.4a2.839,2.839,0,0,0-.747-.087,2.55,2.55,0,0,0-1.032.187" transform="translate(-0.087 -0.685)" fill="#002850"/>
      <path id="Path_11" data-name="Path 11" d="M66.2,45.86h4.227V44.8H66.2V42.158h4.5V41.073H64.943V49.9h5.938V48.8H66.2Z" transform="translate(-0.1 -0.698)" fill="#002850"/>
      <path id="Path_12" data-name="Path 12" d="M77.312,44.587a2.053,2.053,0,0,0-.7-.517,2.375,2.375,0,0,0-1-.194,2.278,2.278,0,0,0-1.19.33,2.207,2.207,0,0,0-.448.362,1.669,1.669,0,0,0-.311.442h-.038c0-.125,0-.28-.013-.467s-.022-.355-.038-.505H72.451q.022.288.038.661c.007.25.013.453.013.611v4.637h1.189V46.805a2.11,2.11,0,0,1,.449-1.415,1.445,1.445,0,0,1,1.157-.53,1.4,1.4,0,0,1,.686.149,1.145,1.145,0,0,1,.417.4,1.686,1.686,0,0,1,.209.573,3.969,3.969,0,0,1,.058.686v3.278h1.19V46.282a3.163,3.163,0,0,0-.135-.936,2.074,2.074,0,0,0-.41-.76" transform="translate(-0.112 -0.746)" fill="#002850"/>
      <path id="Path_13" data-name="Path 13" d="M82.07,48.691h-.025l-1.759-4.65H78.968l2.443,5.908H82.7l2.4-5.908H83.842Z" transform="translate(-0.122 -0.749)" fill="#002850"/>
      <path id="Path_14" data-name="Path 14" d="M86.873,41.1a.769.769,0,0,0-.553.218.726.726,0,0,0-.226.542.709.709,0,0,0,.226.53.766.766,0,0,0,.553.219.806.806,0,0,0,.559-.212.693.693,0,0,0,.232-.537.713.713,0,0,0-.232-.542.789.789,0,0,0-.559-.218" transform="translate(-0.133 -0.699)" fill="#002850"/>
      <rect id="Rectangle_3" data-name="Rectangle 3" width="1.189" height="5.908" transform="translate(86.152 43.292)" fill="#002850"/>
      <path id="Path_15" data-name="Path 15" d="M91.461,44.193a2.048,2.048,0,0,0-.741.841h-.037c0-.125,0-.284-.014-.48s-.02-.368-.038-.517H89.5c.017.191.029.411.038.661s.013.452.013.61v4.637h1.19v-3.1a2.51,2.51,0,0,1,.1-.718,1.747,1.747,0,0,1,.31-.6,1.531,1.531,0,0,1,.526-.418,1.673,1.673,0,0,1,.748-.155,2.249,2.249,0,0,1,.544.062l.05-1.085a1.865,1.865,0,0,0-.468-.05,1.965,1.965,0,0,0-1.1.318" transform="translate(-0.138 -0.746)" fill="#002850"/>
      <path id="Path_16" data-name="Path 16" d="M99.063,44.748a3.137,3.137,0,0,0-1.031-.642,3.654,3.654,0,0,0-2.557,0,3.074,3.074,0,0,0-1.026.642,3,3,0,0,0-.677.978,3.127,3.127,0,0,0-.247,1.253,3.166,3.166,0,0,0,.247,1.259,3.063,3.063,0,0,0,.677.991,3.028,3.028,0,0,0,1.026.649,3.668,3.668,0,0,0,2.557,0,3.09,3.09,0,0,0,1.031-.649,3.005,3.005,0,0,0,.684-.991,3.149,3.149,0,0,0,.248-1.259,3.111,3.111,0,0,0-.248-1.253,2.942,2.942,0,0,0-.684-.978m-.442,3.045a2.132,2.132,0,0,1-.388.684,1.829,1.829,0,0,1-.629.472,2.2,2.2,0,0,1-1.713,0,1.82,1.82,0,0,1-.629-.472,2.111,2.111,0,0,1-.387-.684,2.507,2.507,0,0,1,0-1.616,2.039,2.039,0,0,1,.387-.677,1.868,1.868,0,0,1,.629-.466,2.207,2.207,0,0,1,1.713,0,1.878,1.878,0,0,1,.629.466,2.058,2.058,0,0,1,.388.677,2.525,2.525,0,0,1,0,1.616" transform="translate(-0.145 -0.746)" fill="#002850"/>
      <path id="Path_17" data-name="Path 17" d="M106.463,44.587a2.035,2.035,0,0,0-.695-.517,2.375,2.375,0,0,0-1-.194,2.29,2.29,0,0,0-.634.087,2.226,2.226,0,0,0-1.006.6,1.736,1.736,0,0,0-.31.442h-.038c0-.125,0-.28-.013-.467s-.022-.355-.038-.505H101.6c.016.192.029.412.037.661s.014.453.014.611v4.637h1.189V46.805a2.115,2.115,0,0,1,.449-1.415,1.447,1.447,0,0,1,1.158-.53,1.392,1.392,0,0,1,.684.149,1.122,1.122,0,0,1,.417.4,1.647,1.647,0,0,1,.21.573,3.97,3.97,0,0,1,.057.686v3.278h1.19V46.282a3.2,3.2,0,0,0-.133-.936,2.079,2.079,0,0,0-.412-.76" transform="translate(-0.157 -0.746)" fill="#002850"/>
      <path id="Path_18" data-name="Path 18" d="M117.705,44.587a2.03,2.03,0,0,0-.7-.517,2.561,2.561,0,0,0-2.191.112,2.11,2.11,0,0,0-.848.879,1.855,1.855,0,0,0-.767-.91,2.2,2.2,0,0,0-1.094-.274,2.1,2.1,0,0,0-1.184.33,2.018,2.018,0,0,0-.729.8h-.038c0-.125,0-.28-.012-.467s-.021-.355-.038-.505h-1.126q.024.288.038.661t.012.611v4.637h1.19V46.805a2.159,2.159,0,0,1,.436-1.415,1.362,1.362,0,0,1,1.1-.53,1.336,1.336,0,0,1,.6.119,1.051,1.051,0,0,1,.391.323,1.278,1.278,0,0,1,.216.492,2.974,2.974,0,0,1,.064.636v3.515h1.189V46.756a2.825,2.825,0,0,1,.083-.686,1.844,1.844,0,0,1,.266-.6,1.443,1.443,0,0,1,.474-.436,1.376,1.376,0,0,1,.7-.168,1.262,1.262,0,0,1,.647.149,1.155,1.155,0,0,1,.4.4,1.737,1.737,0,0,1,.216.573,3.522,3.522,0,0,1,.064.686v3.278h1.19V46.282a3.2,3.2,0,0,0-.134-.936,2.062,2.062,0,0,0-.411-.76" transform="translate(-0.169 -0.746)" fill="#002850"/>
      <path id="Path_19" data-name="Path 19" d="M125.11,44.7a2.5,2.5,0,0,0-.914-.61,3.443,3.443,0,0,0-2.43.019,2.975,2.975,0,0,0-.989.642,2.905,2.905,0,0,0-.654.991A3.334,3.334,0,0,0,119.888,47a3.242,3.242,0,0,0,.241,1.271,2.853,2.853,0,0,0,1.659,1.608,3.679,3.679,0,0,0,2.715-.072,2.978,2.978,0,0,0,1.133-.926l-.836-.66a2.161,2.161,0,0,1-.7.636,2.038,2.038,0,0,1-1.051.261,2.016,2.016,0,0,1-.74-.136,1.982,1.982,0,0,1-.614-.378,1.807,1.807,0,0,1-.424-.569,1.7,1.7,0,0,1-.171-.7h4.772a1.5,1.5,0,0,0,.014-.2v-.2a3.784,3.784,0,0,0-.2-1.277,2.764,2.764,0,0,0-.577-.966m-4.006,1.77a1.653,1.653,0,0,1,.184-.655,1.874,1.874,0,0,1,.4-.53,1.845,1.845,0,0,1,.583-.355,1.942,1.942,0,0,1,.715-.131,1.857,1.857,0,0,1,.728.131,1.477,1.477,0,0,1,.519.355,1.492,1.492,0,0,1,.317.53,2.249,2.249,0,0,1,.121.655Z" transform="translate(-0.185 -0.746)" fill="#002850"/>
      <path id="Path_20" data-name="Path 20" d="M132.357,44.587a2.04,2.04,0,0,0-.7-.517,2.375,2.375,0,0,0-1-.194,2.29,2.29,0,0,0-.634.087,2.24,2.24,0,0,0-.556.243,2.275,2.275,0,0,0-.45.362,1.736,1.736,0,0,0-.31.442h-.038c0-.125,0-.28-.013-.467s-.021-.355-.038-.505H127.5c.016.192.029.412.037.661s.014.453.014.611v4.637h1.189V46.805a2.115,2.115,0,0,1,.449-1.415,1.449,1.449,0,0,1,1.158-.53,1.4,1.4,0,0,1,.685.149,1.137,1.137,0,0,1,.417.4,1.646,1.646,0,0,1,.209.573,3.968,3.968,0,0,1,.058.686v3.278h1.19V46.282a3.2,3.2,0,0,0-.134-.936,2.092,2.092,0,0,0-.411-.76" transform="translate(-0.197 -0.746)" fill="#002850"/>
      <path id="Path_21" data-name="Path 21" d="M136.267,42.316H135.09v1.7h-1.152v.959h1.152v3.2a1.909,1.909,0,0,0,.449,1.384,1.729,1.729,0,0,0,1.3.461,3.3,3.3,0,0,0,.538-.043,2.945,2.945,0,0,0,.474-.119l-.038-.959a1.4,1.4,0,0,1-.341.1,1.944,1.944,0,0,1-.354.034.82.82,0,0,1-.646-.229,1.151,1.151,0,0,1-.2-.764v-3.07h1.6v-.959h-1.6Z" transform="translate(-0.207 -0.72)" fill="#002850"/>
      <path id="Path_22" data-name="Path 22" d="M150.168,48.1h-.026l-2.089-7.03h-1.38l-2.1,7.03h-.026l-1.974-7.03h-1.356L143.85,49.9h1.3l2.178-7.093h.026l2.177,7.093h1.3l2.633-8.825h-1.329Z" transform="translate(-0.218 -0.698)" fill="#002850"/>
      <path id="Path_23" data-name="Path 23" d="M159.062,48.775v-2.58a2.643,2.643,0,0,0-.153-.91,1.987,1.987,0,0,0-.455-.734,2.119,2.119,0,0,0-.778-.493,3.158,3.158,0,0,0-1.12-.181,3.946,3.946,0,0,0-1.375.237,3.207,3.207,0,0,0-1.081.649l.633.748a2.491,2.491,0,0,1,1.708-.686,1.692,1.692,0,0,1,1.076.318,1.167,1.167,0,0,1,.405.978v.162q-.761,0-1.507.062a5.53,5.53,0,0,0-1.343.268,2.334,2.334,0,0,0-.962.6,1.5,1.5,0,0,0-.367,1.066,1.655,1.655,0,0,0,.209.86,1.745,1.745,0,0,0,.526.56,2.178,2.178,0,0,0,.7.306,3.183,3.183,0,0,0,.742.093,2.525,2.525,0,0,0,1.183-.261,2.309,2.309,0,0,0,.83-.735h.038a3.619,3.619,0,0,0,.1.847h1.075a3.314,3.314,0,0,1-.069-.543q-.019-.33-.019-.629m-1.139-1.334a1.766,1.766,0,0,1-.449,1.241,1.651,1.651,0,0,1-1.285.492,2.193,2.193,0,0,1-.443-.044,1.16,1.16,0,0,1-.392-.155.891.891,0,0,1-.285-.286.814.814,0,0,1-.108-.437.759.759,0,0,1,.253-.6,1.627,1.627,0,0,1,.64-.337,4.363,4.363,0,0,1,.861-.149c.317-.025.623-.037.918-.037h.292Z" transform="translate(-0.238 -0.746)" fill="#002850"/>
      <path id="Path_24" data-name="Path 24" d="M162.275,42.316H161.1v1.7h-1.151v.959H161.1v3.2a1.909,1.909,0,0,0,.45,1.384,1.728,1.728,0,0,0,1.3.461,3.3,3.3,0,0,0,.538-.043,2.932,2.932,0,0,0,.475-.119l-.037-.959a1.418,1.418,0,0,1-.342.1,1.936,1.936,0,0,1-.354.034.82.82,0,0,1-.646-.229,1.146,1.146,0,0,1-.2-.764v-3.07h1.595v-.959h-1.595Z" transform="translate(-0.247 -0.72)" fill="#002850"/>
      <path id="Path_25" data-name="Path 25" d="M169.935,44.7a2.5,2.5,0,0,0-.914-.61,3.443,3.443,0,0,0-2.43.019,2.985,2.985,0,0,0-.989.642,2.889,2.889,0,0,0-.653.991A3.314,3.314,0,0,0,164.713,47a3.242,3.242,0,0,0,.241,1.271,2.853,2.853,0,0,0,1.659,1.608,3.679,3.679,0,0,0,2.715-.072,2.978,2.978,0,0,0,1.133-.926l-.836-.66a2.15,2.15,0,0,1-.7.636,2.038,2.038,0,0,1-1.051.261,2.016,2.016,0,0,1-.74-.136,1.983,1.983,0,0,1-.614-.378,1.841,1.841,0,0,1-.425-.569,1.716,1.716,0,0,1-.17-.7H170.7a1.689,1.689,0,0,0,.013-.2v-.2a3.784,3.784,0,0,0-.2-1.277,2.763,2.763,0,0,0-.577-.966m-4.006,1.77a1.654,1.654,0,0,1,.184-.655,1.875,1.875,0,0,1,.4-.53,1.856,1.856,0,0,1,.583-.355,1.942,1.942,0,0,1,.715-.131,1.857,1.857,0,0,1,.728.131,1.49,1.49,0,0,1,.52.355,1.52,1.52,0,0,1,.316.53,2.216,2.216,0,0,1,.121.655Z" transform="translate(-0.255 -0.746)" fill="#002850"/>
      <path id="Path_26" data-name="Path 26" d="M174.276,44.193a2.052,2.052,0,0,0-.74.841H173.5c0-.125,0-.284-.013-.48s-.02-.368-.038-.517h-1.126c.017.191.029.411.038.661s.013.452.013.61v4.637h1.189v-3.1a2.51,2.51,0,0,1,.1-.718,1.746,1.746,0,0,1,.31-.6,1.531,1.531,0,0,1,.526-.418,1.669,1.669,0,0,1,.747-.155,2.252,2.252,0,0,1,.545.062l.049-1.085a1.856,1.856,0,0,0-.467-.05,1.971,1.971,0,0,0-1.1.318" transform="translate(-0.266 -0.746)" fill="#002850"/>
      <path id="Path_27" data-name="Path 27" d="M187.791,45.183H186.4l-1.127,1.87-1.785-1.808a5.974,5.974,0,0,0,.729-.4,3.229,3.229,0,0,0,.614-.512,2.374,2.374,0,0,0,.424-.635,1.892,1.892,0,0,0,.158-.785,2.007,2.007,0,0,0-.191-.9,1.936,1.936,0,0,0-.505-.648,2.141,2.141,0,0,0-.735-.393,2.935,2.935,0,0,0-.886-.131,3.066,3.066,0,0,0-.9.131,2.263,2.263,0,0,0-.765.4,1.931,1.931,0,0,0-.533.666,2.1,2.1,0,0,0-.2.935,2.051,2.051,0,0,0,.3,1.091,4.938,4.938,0,0,0,.736.928,6.124,6.124,0,0,0-.752.412,3.166,3.166,0,0,0-.648.549,2.575,2.575,0,0,0-.452.7,2.194,2.194,0,0,0-.172.891,2.382,2.382,0,0,0,.234,1.078,2.334,2.334,0,0,0,.633.785,2.768,2.768,0,0,0,.932.48,3.791,3.791,0,0,0,1.113.162,3.251,3.251,0,0,0,1.577-.349,3.859,3.859,0,0,0,1.145-.973l1.115,1.16h1.658l-2.051-2.082Zm-5.534-3.029a1.185,1.185,0,0,1,.856-.324,1.1,1.1,0,0,1,.825.324,1.149,1.149,0,0,1,.2,1.32,1.8,1.8,0,0,1-.327.437,2.241,2.241,0,0,1-.465.349q-.265.149-.542.273c-.1-.09-.2-.195-.309-.311a2.626,2.626,0,0,1-.283-.38,2.432,2.432,0,0,1-.208-.418,1.141,1.141,0,0,1-.082-.424,1.116,1.116,0,0,1,.339-.847m1.483,6.637a2,2,0,0,1-1.088.28,1.894,1.894,0,0,1-.621-.105,1.693,1.693,0,0,1-.538-.306,1.5,1.5,0,0,1-.373-.487,1.433,1.433,0,0,1-.139-.635,1.507,1.507,0,0,1,.392-1.085,3.055,3.055,0,0,1,1.051-.685l2.127,2.194a2.806,2.806,0,0,1-.811.829" transform="translate(-0.278 -0.695)" fill="#002850"/>
      <path id="Path_28" data-name="Path 28" d="M195.166,41.074,191.28,49.9h1.391l.9-2.168h4.253l.912,2.168h1.418l-3.849-8.825Zm-1.152,5.572,1.684-4.138,1.67,4.138Z" transform="translate(-0.296 -0.698)" fill="#002850"/>
      <path id="Path_29" data-name="Path 29" d="M206.069,44.985h-.026a2.112,2.112,0,0,0-.93-.835,2.894,2.894,0,0,0-1.235-.275,3.056,3.056,0,0,0-1.241.245,2.832,2.832,0,0,0-.949.66,2.955,2.955,0,0,0-.608.979,3.3,3.3,0,0,0-.216,1.2,3.256,3.256,0,0,0,.216,1.19,2.909,2.909,0,0,0,.608.966,2.807,2.807,0,0,0,.956.648,3.182,3.182,0,0,0,1.247.237,2.85,2.85,0,0,0,1.215-.262,2.1,2.1,0,0,0,.9-.76h.025v.76a3.282,3.282,0,0,1-.108.86,1.777,1.777,0,0,1-.353.693,1.675,1.675,0,0,1-.653.46,2.594,2.594,0,0,1-1,.169,2.951,2.951,0,0,1-1.208-.261,2.839,2.839,0,0,1-.981-.7l-.76.91a4,4,0,0,0,1.362.791,4.66,4.66,0,0,0,1.576.28,3.952,3.952,0,0,0,1.57-.274,2.787,2.787,0,0,0,1.025-.728,2.667,2.667,0,0,0,.557-1.048,4.634,4.634,0,0,0,.165-1.24V44.038h-1.152Zm-.095,2.761a1.994,1.994,0,0,1-.412.661,1.947,1.947,0,0,1-.648.443,2.136,2.136,0,0,1-.838.162,1.921,1.921,0,0,1-.839-.176,1.975,1.975,0,0,1-.629-.46,1.947,1.947,0,0,1-.394-.662,2.337,2.337,0,0,1-.132-.784,2.436,2.436,0,0,1,.132-.8,1.862,1.862,0,0,1,.394-.661,1.961,1.961,0,0,1,.629-.449,2.156,2.156,0,0,1,1.669,0,2.017,2.017,0,0,1,1.067,1.116,2.185,2.185,0,0,1,.146.8,2.265,2.265,0,0,1-.146.816" transform="translate(-0.311 -0.746)" fill="#002850"/>
      <path id="Path_30" data-name="Path 30" d="M211.178,44.193a2.048,2.048,0,0,0-.741.841H210.4c0-.125,0-.284-.013-.48s-.02-.368-.038-.517h-1.126c.017.191.029.411.038.661s.013.452.013.61v4.637h1.19v-3.1a2.51,2.51,0,0,1,.1-.718,1.746,1.746,0,0,1,.31-.6,1.53,1.53,0,0,1,.526-.418,1.669,1.669,0,0,1,.747-.155,2.251,2.251,0,0,1,.545.062l.05-1.085a1.87,1.87,0,0,0-.468-.05,1.963,1.963,0,0,0-1.1.318" transform="translate(-0.323 -0.746)" fill="#002850"/>
      <rect id="Rectangle_4" data-name="Rectangle 4" width="1.19" height="5.908" transform="translate(213.545 43.292)" fill="#002850"/>
      <path id="Path_31" data-name="Path 31" d="M214.464,41.1a.765.765,0,0,0-.552.218.723.723,0,0,0-.227.542.707.707,0,0,0,.227.53.762.762,0,0,0,.552.219.81.81,0,0,0,.56-.212.7.7,0,0,0,.232-.537.717.717,0,0,0-.232-.542.794.794,0,0,0-.56-.218" transform="translate(-0.33 -0.699)" fill="#002850"/>
      <path id="Path_32" data-name="Path 32" d="M220.812,48.949a2.077,2.077,0,0,1-1.664,0,1.865,1.865,0,0,1-.621-.468,2.043,2.043,0,0,1-.386-.679,2.537,2.537,0,0,1,0-1.62,2.033,2.033,0,0,1,.386-.679,1.9,1.9,0,0,1,.614-.468,1.878,1.878,0,0,1,.83-.174,1.767,1.767,0,0,1,.811.193,1.45,1.45,0,0,1,.569.48l.861-.685a2.3,2.3,0,0,0-.993-.723,3.388,3.388,0,0,0-1.259-.25,3.562,3.562,0,0,0-1.274.225,3.03,3.03,0,0,0-1.018.635,2.9,2.9,0,0,0-.67.986,3.245,3.245,0,0,0-.241,1.271A3.209,3.209,0,0,0,217,48.276a2.909,2.909,0,0,0,.676.979,3.073,3.073,0,0,0,1.02.629,3.582,3.582,0,0,0,1.285.224,3.277,3.277,0,0,0,1.291-.243,2.578,2.578,0,0,0,.95-.679l-.8-.711a1.7,1.7,0,0,1-.614.474" transform="translate(-0.335 -0.746)" fill="#002850"/>
      <path id="Path_33" data-name="Path 33" d="M228.716,48.678V44.041h-1.189v3.142a2.13,2.13,0,0,1-.444,1.414,1.442,1.442,0,0,1-1.164.531,1.378,1.378,0,0,1-.684-.15,1.114,1.114,0,0,1-.417-.4,1.623,1.623,0,0,1-.21-.579,4.172,4.172,0,0,1-.057-.692V44.041h-1.189v3.665a3.185,3.185,0,0,0,.133.935,2.18,2.18,0,0,0,.4.767,1.85,1.85,0,0,0,.7.517,2.482,2.482,0,0,0,1.007.187,2.25,2.25,0,0,0,1.2-.329,1.955,1.955,0,0,0,.767-.805h.024c0,.126,0,.281.013.468s.021.355.038.5h1.127q-.025-.286-.038-.661t-.013-.61" transform="translate(-0.345 -0.749)" fill="#002850"/>
      <rect id="Rectangle_5" data-name="Rectangle 5" width="1.189" height="9.423" transform="translate(230.46 39.777)" fill="#002850"/>
      <path id="Path_34" data-name="Path 34" d="M235.428,42.316H234.25v1.7H233.1v.959h1.151v3.2a1.91,1.91,0,0,0,.45,1.384,1.729,1.729,0,0,0,1.3.461,3.283,3.283,0,0,0,.537-.043,2.972,2.972,0,0,0,.476-.119l-.039-.959a1.383,1.383,0,0,1-.341.1,1.944,1.944,0,0,1-.354.034.82.82,0,0,1-.646-.229,1.146,1.146,0,0,1-.2-.764v-3.07h1.6v-.959h-1.6Z" transform="translate(-0.36 -0.72)" fill="#002850"/>
      <path id="Path_35" data-name="Path 35" d="M243.564,48.678V44.041h-1.189v3.142a2.13,2.13,0,0,1-.444,1.414,1.444,1.444,0,0,1-1.165.531,1.376,1.376,0,0,1-.683-.15,1.107,1.107,0,0,1-.417-.4,1.623,1.623,0,0,1-.21-.579,4.067,4.067,0,0,1-.057-.692V44.041h-1.19v3.665a3.185,3.185,0,0,0,.133.935,2.182,2.182,0,0,0,.405.767,1.85,1.85,0,0,0,.7.517,2.478,2.478,0,0,0,1.007.187,2.25,2.25,0,0,0,1.2-.329,1.952,1.952,0,0,0,.766-.805h.025c0,.126,0,.281.013.468s.02.355.038.5h1.127q-.025-.286-.038-.661t-.013-.61" transform="translate(-0.368 -0.749)" fill="#002850"/>
      <path id="Path_36" data-name="Path 36" d="M247.544,44.193a2.052,2.052,0,0,0-.74.841h-.038c0-.125,0-.284-.013-.48s-.02-.368-.038-.517h-1.126q.025.286.037.661c.009.25.013.452.013.61v4.637h1.19v-3.1a2.51,2.51,0,0,1,.1-.718,1.746,1.746,0,0,1,.31-.6,1.531,1.531,0,0,1,.526-.418,1.666,1.666,0,0,1,.747-.155,2.238,2.238,0,0,1,.544.062l.05-1.085a1.857,1.857,0,0,0-.467-.05,1.968,1.968,0,0,0-1.1.318" transform="translate(-0.38 -0.746)" fill="#002850"/>
      <path id="Path_37" data-name="Path 37" d="M255.407,45.665a2.762,2.762,0,0,0-.577-.966,2.5,2.5,0,0,0-.914-.61,3.443,3.443,0,0,0-2.43.019,2.975,2.975,0,0,0-.989.642,2.9,2.9,0,0,0-.654.991A3.333,3.333,0,0,0,249.608,47a3.241,3.241,0,0,0,.241,1.271,2.853,2.853,0,0,0,1.659,1.608,3.679,3.679,0,0,0,2.715-.072,2.978,2.978,0,0,0,1.133-.926l-.836-.66a2.161,2.161,0,0,1-.7.636,2.041,2.041,0,0,1-1.051.261,2.016,2.016,0,0,1-.74-.136,1.971,1.971,0,0,1-.614-.378,1.826,1.826,0,0,1-.425-.569,1.733,1.733,0,0,1-.171-.7H255.6a1.5,1.5,0,0,0,.014-.2v-.2a3.784,3.784,0,0,0-.2-1.277m-4.584.8a1.672,1.672,0,0,1,.185-.655A1.823,1.823,0,0,1,252,44.93a1.938,1.938,0,0,1,.715-.131,1.861,1.861,0,0,1,.728.131,1.485,1.485,0,0,1,.519.355,1.506,1.506,0,0,1,.317.53,2.216,2.216,0,0,1,.12.655Z" transform="translate(-0.386 -0.746)" fill="#002850"/>
      <path id="Path_38" data-name="Path 38" d="M174.1,13.843h-2V13.2c0-.89.835-1.224,1.685-1.224V10.085c-.374.024-.907.089-1.07.116a2.9,2.9,0,0,0-1.837.993,3.646,3.646,0,0,0-.783,2.387v2.08H174.1Z" transform="translate(-0.263 -0.171)" fill="#002850"/>
      <path id="Path_39" data-name="Path 39" d="M163.333,15.983a1.729,1.729,0,0,0,1.748-1.722,1.667,1.667,0,0,0-.5-1.228,1.791,1.791,0,0,0-2.473,0,1.594,1.594,0,0,0-.521,1.223,1.627,1.627,0,0,0,.52,1.209,1.675,1.675,0,0,0,1.23.513" transform="translate(-0.25 -0.213)" fill="#002850"/>
      <path id="Path_40" data-name="Path 40" d="M158.846,15.983a1.645,1.645,0,0,0,1.212-.51,1.676,1.676,0,0,0,.5-1.212,1.659,1.659,0,0,0-.5-1.228,1.763,1.763,0,0,0-2.461,0,1.647,1.647,0,0,0-.5,1.225,1.734,1.734,0,0,0,1.749,1.722" transform="translate(-0.243 -0.213)" fill="#002850"/>
      <path id="Path_41" data-name="Path 41" d="M219.733,15.983a1.732,1.732,0,0,0,1.75-1.722,1.655,1.655,0,0,0-.5-1.223,1.783,1.783,0,0,0-2.478,0,1.611,1.611,0,0,0-.518,1.223,1.648,1.648,0,0,0,.518,1.209,1.7,1.7,0,0,0,1.231.513" transform="translate(-0.337 -0.213)" fill="#002850"/>
      <path id="Path_42" data-name="Path 42" d="M215.245,15.983a1.65,1.65,0,0,0,1.213-.509,1.669,1.669,0,0,0,.505-1.213,1.652,1.652,0,0,0-.5-1.223,1.777,1.777,0,0,0-2.461,0,1.638,1.638,0,0,0-.505,1.227,1.739,1.739,0,0,0,1.75,1.722" transform="translate(-0.33 -0.213)" fill="#002850"/>
      <path id="Path_43" data-name="Path 43" d="M226.343,31.416a4.956,4.956,0,0,0,1.637-2.793c.035-.166.089-1.183.089-1.183l.054-9.626L225.2,17.8c0,6.654-.02,9.795-.033,9.953a2.2,2.2,0,0,1-.739,1.487,2.668,2.668,0,0,1-1.673.564V32.7l.709-.063a5.3,5.3,0,0,0,2.877-1.22" transform="translate(-0.344 -0.303)" fill="#002850"/>
      <path id="Path_44" data-name="Path 44" d="M213.226,27.7a5.51,5.51,0,0,0,5.5,0,5.575,5.575,0,0,0,2-1.973,5.128,5.128,0,0,0,.749-2.707c-.007-1.861,0-3.435,0-5.213l-5.691-.042a5.4,5.4,0,0,0-2.7.686,5.026,5.026,0,0,0-1.891,1.892,5.4,5.4,0,0,0-.683,2.677,5.247,5.247,0,0,0,.732,2.708,5.461,5.461,0,0,0,1.989,1.972m.861-6.405a2.232,2.232,0,0,1,1.691-.68l2.766.033v2.372a2.4,2.4,0,0,1-.75,1.795,2.551,2.551,0,0,1-3.61,0,2.562,2.562,0,0,1-.1-3.52" transform="translate(-0.325 -0.302)" fill="#002850"/>
      <path id="Path_45" data-name="Path 45" d="M234.685,12.68h-2.933c0,3.348,0,15.449,0,15.449h2.933c.044,0,0-15.449,0-15.449" transform="translate(-0.358 -0.216)" fill="#002850"/>
      <path id="Path_46" data-name="Path 46" d="M134.186,12.684h-2.9c0,3.369,0,15.457,0,15.457h2.9V12.684" transform="translate(-0.203 -0.216)" fill="#002850"/>
      <path id="Path_47" data-name="Path 47" d="M204.556,12.681H201.6c0,3.357,0,15.458,0,15.458h2.958Z" transform="translate(-0.312 -0.216)" fill="#002850"/>
      <path id="Path_48" data-name="Path 48" d="M57.668,12.682h-2.9c0,3.348,0,15.458,0,15.458h2.9V12.682" transform="translate(-0.085 -0.216)" fill="#002850"/>
      <path id="Path_49" data-name="Path 49" d="M188.268,31.526a1.625,1.625,0,0,0-.517,1.225,1.642,1.642,0,0,0,.52,1.21,1.756,1.756,0,0,0,2.473,0,1.678,1.678,0,0,0,.5-1.212,1.659,1.659,0,0,0-.5-1.228,1.8,1.8,0,0,0-2.478,0" transform="translate(-0.29 -0.528)" fill="#002850"/>
      <path id="Path_50" data-name="Path 50" d="M197.566,12.683h-2.82l-.028,12.559-1.719,0a2.633,2.633,0,0,1-1.7-.522,2.485,2.485,0,0,1-.447-1.7l.021-5.255v-.032h-2.955l-.024,5.477a2.973,2.973,0,0,1-.22,1.324,1.175,1.175,0,0,1-.831.578,13.526,13.526,0,0,1-2.06.127l-.583-.019a2.256,2.256,0,0,1-1.4-.5,2.485,2.485,0,0,1-.447-1.7l.022-5.284h-2.957l-.023,5.473a2.939,2.939,0,0,1-.22,1.322,1.174,1.174,0,0,1-.829.58,14.235,14.235,0,0,1-2.137.127c-.146,0-.5-.01-.579-.017a2.281,2.281,0,0,1-1.424-.5,2.472,2.472,0,0,1-.447-1.7l.021-5.25v-.035H170.82l-.02,5.473a2.961,2.961,0,0,1-.222,1.324,1.173,1.173,0,0,1-.83.58c-.325.076-3.177.063-3.177.063-1.093,0-1.492-.634-1.492-1.892,0-1.47-.006-5.552-.006-5.552l-5.7-.021a5.384,5.384,0,0,0-2.7.687,4.986,4.986,0,0,0-1.89,1.891,5.38,5.38,0,0,0-.68,2.677,5.237,5.237,0,0,0,.728,2.707,5.446,5.446,0,0,0,1.988,1.973,5.36,5.36,0,0,0,2.748.734,5.494,5.494,0,0,0,2.017-.38,6,6,0,0,0,1.762-1.1l.036-.03a5.069,5.069,0,0,0,1.5,1.033,6.169,6.169,0,0,0,1.926.206c1.453.027,2.494,0,2.494,0a6.425,6.425,0,0,0,1.434-.171,5.371,5.371,0,0,0,1.619-.884l.113.1a3.884,3.884,0,0,0,1.523.82,7.533,7.533,0,0,0,1.689.157l1.788,0a6.762,6.762,0,0,0,1.715-.185,4.64,4.64,0,0,0,1.528-.823l.046.035a3.877,3.877,0,0,0,1.523.82,7.533,7.533,0,0,0,1.689.157l2.167,0a6.756,6.756,0,0,0,1.713-.185,4.64,4.64,0,0,0,1.526-.823h0s.118.1.155.127a3.757,3.757,0,0,0,1.407.729,7.564,7.564,0,0,0,1.691.157l5.04,0L197.7,12.71v-.027ZM162.142,22.967a2.4,2.4,0,0,1-.754,1.795,2.555,2.555,0,0,1-3.608,0,2.4,2.4,0,0,1-.751-1.795,2.371,2.371,0,0,1,.652-1.727,2.244,2.244,0,0,1,1.691-.678l2.77.031Z" transform="translate(-0.238 -0.216)" fill="#002850"/>
      <path id="Path_51" data-name="Path 51" d="M182.612,34.471a1.729,1.729,0,0,0,1.749-1.72,1.649,1.649,0,0,0-.5-1.227,1.794,1.794,0,0,0-2.476,0,1.625,1.625,0,0,0-.517,1.225,1.657,1.657,0,0,0,.518,1.21,1.68,1.68,0,0,0,1.229.51" transform="translate(-0.28 -0.528)" fill="#002850"/>
      <path id="Path_52" data-name="Path 52" d="M176.879,31.524a1.731,1.731,0,0,0,1.248,2.949,1.641,1.641,0,0,0,1.215-.512,1.733,1.733,0,0,0,0-2.437,1.758,1.758,0,0,0-2.462,0" transform="translate(-0.273 -0.527)" fill="#002850"/>
      <path id="Path_53" data-name="Path 53" d="M9.225,15.929a1.729,1.729,0,0,0,1.749-1.724,1.664,1.664,0,0,0-.5-1.226,1.789,1.789,0,0,0-2.475,0,1.628,1.628,0,0,0-.518,1.223A1.651,1.651,0,0,0,8,15.416a1.679,1.679,0,0,0,1.229.513" transform="translate(-0.012 -0.212)" fill="#002850"/>
      <path id="Path_54" data-name="Path 54" d="M29.4,28.162V22.309c.02-1.553.03-6.128.029-9.59L26.5,12.7c0,3.327-.014,8.187-.032,9.613v5.852Z" transform="translate(-0.041 -0.216)" fill="#002850"/>
      <path id="Path_55" data-name="Path 55" d="M4.738,15.929a1.632,1.632,0,0,0,1.211-.511,1.678,1.678,0,0,0,.505-1.213,1.651,1.651,0,0,0-.5-1.225,1.767,1.767,0,0,0-2.458,0,1.727,1.727,0,0,0,0,2.437,1.689,1.689,0,0,0,1.245.512" transform="translate(-0.005 -0.212)" fill="#002850"/>
      <path id="Path_56" data-name="Path 56" d="M23.813,28.217V25.342l-4.1.021a2.235,2.235,0,0,1-1.694-.674,2.578,2.578,0,0,1-.251-3.1,2.543,2.543,0,0,1,2.871-1.057l.545.163,1.731-2.317c-.266-.131-.578-.253-.674-.3a5.611,5.611,0,0,0-5.054.219,5.484,5.484,0,0,0-2.006,1.957,5.183,5.183,0,0,0-.743,2.7,5.71,5.71,0,0,0,.435,2.208l.072.169H12.469c-1.093,0-1.492-.634-1.492-1.893,0-1.47-.006-5.624-.006-5.624l-5.7-.021a5.382,5.382,0,0,0-2.7.687,4.979,4.979,0,0,0-1.89,1.891A5.381,5.381,0,0,0,0,23.05a5.237,5.237,0,0,0,.729,2.707A5.446,5.446,0,0,0,2.717,27.73a5.358,5.358,0,0,0,2.748.734,5.494,5.494,0,0,0,2.017-.38,6,6,0,0,0,1.762-1.1l.036-.03a5.054,5.054,0,0,0,1.5,1.033,5.316,5.316,0,0,0,1.8.23c1.452.027,2.619,0,2.619,0ZM8.038,23.05a2.406,2.406,0,0,1-.753,1.795,2.555,2.555,0,0,1-3.608,0,2.4,2.4,0,0,1-.752-1.795,2.375,2.375,0,0,1,.652-1.727,2.248,2.248,0,0,1,1.692-.678l2.769.031Z" transform="translate(0 -0.299)" fill="#002850"/>
      <path id="Path_57" data-name="Path 57" d="M42.3,15.986a1.63,1.63,0,0,0,1.212-.512,1.708,1.708,0,0,0,0-2.422,1.727,1.727,0,0,0-2.457,0,1.69,1.69,0,0,0-.5,1.213,1.653,1.653,0,0,0,.505,1.213,1.672,1.672,0,0,0,1.243.509" transform="translate(-0.063 -0.213)" fill="#002850"/>
      <path id="Path_58" data-name="Path 58" d="M88.935,17.827,83.2,17.805a5.4,5.4,0,0,0-2.7.687,4.991,4.991,0,0,0-1.891,1.892,5.377,5.377,0,0,0-.681,2.676,5.248,5.248,0,0,0,.729,2.707,5.444,5.444,0,0,0,1.99,1.973,5.5,5.5,0,0,0,5.493,0,5.592,5.592,0,0,0,2.007-1.973,5.226,5.226,0,0,0,.786-2.707ZM85.969,23.06a2.4,2.4,0,0,1-.752,1.795,2.553,2.553,0,0,1-3.61,0,2.4,2.4,0,0,1-.752-1.794,2.372,2.372,0,0,1,.653-1.727,2.249,2.249,0,0,1,1.692-.678l2.769.032Z" transform="translate(-0.12 -0.303)" fill="#002850"/>
      <path id="Path_59" data-name="Path 59" d="M99.166,34.423a1.73,1.73,0,0,0,1.213-2.949,1.761,1.761,0,0,0-2.459,0,1.731,1.731,0,0,0,1.246,2.949" transform="translate(-0.151 -0.527)" fill="#002850"/>
      <path id="Path_60" data-name="Path 60" d="M124.593,12.682l-.033,12.575h-2.694a2.181,2.181,0,0,1-1.583-.617,3.046,3.046,0,0,1-.669-1.727,5.277,5.277,0,0,0-.729-2.707,5.343,5.343,0,0,0-1.987-1.957,5.634,5.634,0,0,0-5.5,0,5.461,5.461,0,0,0-2,1.957,5.171,5.171,0,0,0-.747,2.707l.031,2.343c-.608,0-3.016,0-3.091,0l-.25-.02a2.3,2.3,0,0,1-1.476-.507,2.456,2.456,0,0,1-.446-1.7l.02-5.3h-2.955l-.022,5.493a2.945,2.945,0,0,1-.222,1.322,1.183,1.183,0,0,1-.829.582,8.661,8.661,0,0,1-1.708.128H95.173l-.027-12.575H92.184l.026,15.456H98.7a6.786,6.786,0,0,0,1.716-.185,4.655,4.655,0,0,0,1.526-.825,7.727,7.727,0,0,0,1.569.855,7.424,7.424,0,0,0,1.692.159l9.136,0a5.362,5.362,0,0,0,3.81-1.487l.034-.03.093.083a5.058,5.058,0,0,0,3.689,1.435h5.493l.025-15.456Zm-8.034,11.184a2.17,2.17,0,0,1-.492.76c-.025.024-.051.038-.075.061a2.195,2.195,0,0,1-.281.23,2.484,2.484,0,0,1-1.374.369h-2.752c0-.554-.011-1.856-.011-2.33v-.042a2.485,2.485,0,0,1,.131-.773c.022-.068.035-.139.063-.2a2.463,2.463,0,0,1,.241-.429,2.8,2.8,0,0,1,1.171-.942c.05-.022.106-.039.16-.058s.119-.034.182-.05c.043-.011.083-.023.13-.031a2.7,2.7,0,0,1,1.485.137,2.671,2.671,0,0,1,1.4,1.375,2.36,2.36,0,0,1,.114.375,2.667,2.667,0,0,1-.088,1.553" transform="translate(-0.143 -0.216)" fill="#002850"/>
      <path id="Path_61" data-name="Path 61" d="M62.676,30.332v2.907A9.08,9.08,0,0,0,70.9,28.06a8.8,8.8,0,0,0,.765-2.615c0-.037.057-1.132.057-1.132V22.922a5.223,5.223,0,0,0-.732-2.7A5.31,5.31,0,0,0,69,18.264a5.624,5.624,0,0,0-5.5,0,5.451,5.451,0,0,0-2,1.957,5.153,5.153,0,0,0-.745,2.7,5.45,5.45,0,0,0,.684,2.712,4.962,4.962,0,0,0,1.889,1.891,5.4,5.4,0,0,0,2.7.685c.491,0,.907,0,1.269-.006a6.111,6.111,0,0,1-4.623,2.127m3.354-5a2.233,2.233,0,0,1-1.7-.674,2.559,2.559,0,0,1,.095-3.52,2.481,2.481,0,0,1,1.824-.743,2.443,2.443,0,0,1,1.788.74,2.4,2.4,0,0,1,.751,1.79v2.407Z" transform="translate(-0.094 -0.298)" fill="#002850"/>
      <path id="Path_62" data-name="Path 62" d="M139.206,30.332v2.907a9.08,9.08,0,0,0,8.221-5.178,8.775,8.775,0,0,0,.765-2.615c0-.037.057-1.132.057-1.132V22.922a5.223,5.223,0,0,0-.732-2.7,5.31,5.31,0,0,0-1.984-1.956,5.624,5.624,0,0,0-5.5,0,5.448,5.448,0,0,0-2,1.957,5.154,5.154,0,0,0-.746,2.7,5.451,5.451,0,0,0,.684,2.712,4.958,4.958,0,0,0,1.89,1.891,5.393,5.393,0,0,0,2.7.685c.491,0,.907,0,1.269-.006a6.111,6.111,0,0,1-4.623,2.127m3.354-5a2.233,2.233,0,0,1-1.7-.674,2.559,2.559,0,0,1,.095-3.52,2.483,2.483,0,0,1,1.824-.743,2.445,2.445,0,0,1,1.789.74,2.407,2.407,0,0,1,.75,1.79v2.407Z" transform="translate(-0.212 -0.298)" fill="#002850"/>
      <path id="Path_63" data-name="Path 63" d="M238.9,27.754a2.219,2.219,0,0,1-.74,1.487,2.669,2.669,0,0,1-1.672.564V32.7l.708-.063a5.3,5.3,0,0,0,2.877-1.22,4.977,4.977,0,0,0,1.664-2.93c.023-.122.058-.659.058-.659l.058-10.013-2.92-.014c0,6.654-.02,9.795-.032,9.953" transform="translate(-0.366 -0.303)" fill="#002850"/>
      <path id="Path_64" data-name="Path 64" d="M239.022,12.822a1.664,1.664,0,0,0-.507,1.211,1.735,1.735,0,1,0,2.963-1.21,1.726,1.726,0,0,0-2.456,0" transform="translate(-0.369 -0.209)" fill="#002850"/>
      <path id="Path_65" data-name="Path 65" d="M254.856,20.224a5.283,5.283,0,0,0-1.983-1.955,5.621,5.621,0,0,0-5.5,0,5.445,5.445,0,0,0-2,1.956,5.153,5.153,0,0,0-.745,2.7,5.438,5.438,0,0,0,.685,2.712,4.953,4.953,0,0,0,1.888,1.891,5.39,5.39,0,0,0,2.7.686c.491,0,.907,0,1.269-.006a6.113,6.113,0,0,1-4.623,2.127v2.906a9.076,9.076,0,0,0,8.22-5.178,8.712,8.712,0,0,0,.766-2.615c0-.037.057-1.132.057-1.132V22.926a5.214,5.214,0,0,0-.733-2.7M252.7,25.331h-2.8c-.046,0-.086-.009-.131-.011-.074,0-.15,0-.221-.015h-.011c-.01,0-.019,0-.029-.006a2.145,2.145,0,0,1-1.3-.642,2.561,2.561,0,0,1,.1-3.52,2.471,2.471,0,0,1,1.06-.625l.063-.019a2.6,2.6,0,0,1,.3-.064c.084-.013.171-.018.259-.023.049,0,.094-.013.145-.013l.016,0,.017,0a2.441,2.441,0,0,1,1.788.74,2.4,2.4,0,0,1,.751,1.79Z" transform="translate(-0.378 -0.298)" fill="#002850"/>
      <path id="Path_66" data-name="Path 66" d="M104.9,33.913A1.667,1.667,0,0,0,105.4,32.7a1.651,1.651,0,0,0-.5-1.226,1.8,1.8,0,0,0-2.478,0,1.7,1.7,0,0,0,0,2.437,1.714,1.714,0,0,0,1.232.513,1.664,1.664,0,0,0,1.243-.512" transform="translate(-0.158 -0.527)" fill="#002850"/>
      <path id="Path_67" data-name="Path 67" d="M36.779,17.819h-2.92c0,6.654-.02,9.859-.033,10.018a2.209,2.209,0,0,1-.739,1.487,2.668,2.668,0,0,1-1.673.564v2.894l.709-.063A5.3,5.3,0,0,0,35,31.5a5.025,5.025,0,0,0,1.721-3.3Z" transform="translate(-0.049 -0.303)" fill="#002850"/>
      <path id="Path_68" data-name="Path 68" d="M42.1,31.412a5.028,5.028,0,0,0,1.718-3.281h7.086l.029-15.445H48.046l-.031,12.563H43.841l.043-7.518h-2.92c0,6.654-.02,9.859-.033,10.018a2.209,2.209,0,0,1-.739,1.487,2.67,2.67,0,0,1-1.673.564v2.894l.709-.063a5.3,5.3,0,0,0,2.877-1.22" transform="translate(-0.06 -0.216)" fill="#002850"/>
      <path id="Path_69" data-name="Path 69" d="M140.164,23.614a2.287,2.287,0,0,0,.613,1.23,2.249,2.249,0,0,0,.352.3,2.249,2.249,0,0,1-.352-.3,2.287,2.287,0,0,1-.613-1.23" transform="translate(-0.217 -0.402)" fill="#002850"/>
      <path id="Path_70" data-name="Path 70" d="M304.4,2.772a29.239,29.239,0,0,1,29.431,28.975,29.435,29.435,0,0,1-58.862,0A29.239,29.239,0,0,1,304.4,2.772M304.4,0c-17.78,0-32.246,14.242-32.246,31.747S286.624,63.494,304.4,63.494,336.65,49.252,336.65,31.747,322.185,0,304.4,0" transform="translate(-0.421 0)" fill="#61b254"/>
      <path id="Path_71" data-name="Path 71" d="M321.692,44.832a9.021,9.021,0,0,0-3.74-.664c-3.012,0-7.631.926-13.408,5.107l-.025.019-.118-.09c-5.778-4.182-10.324-5.035-13.336-5.035a9.02,9.02,0,0,0-3.74.664c-.072.041-.207.118-.173.245.021.079.093.119.211.119a.73.73,0,0,0,.111-.009,8.949,8.949,0,0,1,2.173-.259c3.907,0,8.958,2.909,13,5.8-.818.661-1.652,1.377-2.511,2.168-.12-.1-.161-.13-.277-.225a3.624,3.624,0,0,0-1.045-.622A1.122,1.122,0,0,0,298.2,52a.8.8,0,0,0-.6.9.7.7,0,0,0,.616.684.67.67,0,0,0,.6-.333c.154.124.3.245.434.37.063.059.123.121.185.181l-.251.216c-.2.17-.389.336-.584.5a5.614,5.614,0,0,1-1.265.835,1.131,1.131,0,0,1-.519.123,1.786,1.786,0,0,1-.288-.061l-.07-.02a.237.237,0,0,1-.028-.012.716.716,0,0,0-.185-.067.475.475,0,0,0-.087-.008.385.385,0,0,0-.344.2.721.721,0,0,0-.059.508.77.77,0,0,0,.186.318,1.681,1.681,0,0,0,1.1.577,2.049,2.049,0,0,0,.235.013,2.234,2.234,0,0,0,.241-.013,3.322,3.322,0,0,0,1.03-.3,8.546,8.546,0,0,0,1.731-1.087l.511-.4c.167.159.342.32.519.477a2.362,2.362,0,0,0,.8.5.891.891,0,0,0,.286.046.854.854,0,0,0,.112-.007c.045,0,.088-.011.133-.019a.74.74,0,0,0,.555-.628.842.842,0,0,0-.322-.838.612.612,0,0,0-.766.086.627.627,0,0,0-.084.092c-.134-.132-.262-.27-.393-.413.847-.753,1.871-1.529,2.847-2.3.986.767,2.071,1.542,2.918,2.3-.131.143-.261.281-.393.413a.68.68,0,0,0-.083-.092.613.613,0,0,0-.767-.086.844.844,0,0,0-.321.838.74.74,0,0,0,.555.628c.044.008.088.015.133.019a.86.86,0,0,0,.111.007.888.888,0,0,0,.287-.046,2.353,2.353,0,0,0,.8-.5c.177-.156.351-.318.519-.477l.511.4a8.574,8.574,0,0,0,1.731,1.087,3.33,3.33,0,0,0,1.03.3,2.229,2.229,0,0,0,.24.013,2.11,2.11,0,0,0,.237-.013,1.681,1.681,0,0,0,1.1-.577.77.77,0,0,0,.186-.318.726.726,0,0,0-.059-.508.386.386,0,0,0-.344-.2.475.475,0,0,0-.087.008.73.73,0,0,0-.185.067l-.027.012-.072.02a1.753,1.753,0,0,1-.287.061,1.134,1.134,0,0,1-.519-.123,5.592,5.592,0,0,1-1.265-.835c-.195-.16-.387-.326-.584-.5l-.251-.216c.063-.06.122-.122.185-.181.133-.125.281-.246.434-.37a.669.669,0,0,0,.6.333.7.7,0,0,0,.616-.684.8.8,0,0,0-.6-.9,1.121,1.121,0,0,0-.612.049,3.64,3.64,0,0,0-1.046.622c-.115.1-.156.121-.276.225-.833-.765-1.7-1.516-2.5-2.172,4.043-2.894,9.089-5.8,12.994-5.8a8.957,8.957,0,0,1,2.174.259.7.7,0,0,0,.11.009c.117,0,.189-.04.211-.119.035-.127-.1-.2-.173-.245" transform="translate(-0.444 -0.751)" fill="#61b254"/>
      <path id="Path_72" data-name="Path 72" d="M306.227,42.934A13.223,13.223,0,0,0,305.4,45.1a8.982,8.982,0,0,1,2.7-.854,6.436,6.436,0,0,0,5.14-6.038c-.124.235-.456.731-3.335.861-1.507.068-4.009.25-5.307,2.688a6.906,6.906,0,0,1,.537,1.5c1.616-3.805,5.6-3.284,6.278-3.426-.673.29-3.561.43-5.187,3.1" transform="translate(-0.471 -0.65)" fill="#61b254"/>
      <path id="Path_73" data-name="Path 73" d="M304.441,47.392l.709-.345c-.174-7.465-4.266-7.89-6.246-7.978-2.88-.131-3.211-.626-3.336-.861a6.437,6.437,0,0,0,5.141,6.038,5.3,5.3,0,0,1,2.147.7c-.55-4.878-4.638-4.758-5.462-5.112.777.162,6.6-1.055,6.332,7.214Z" transform="translate(-0.457 -0.65)" fill="#61b254"/>
      <path id="Path_74" data-name="Path 74" d="M302.063,25.575a2.586,2.586,0,0,0,2.347,2.67,2.537,2.537,0,0,0,2.347-2.67c.026-2.041-2.347-5.931-2.347-5.931s-2.476,3.8-2.347,5.931m3.367,1.75a1.658,1.658,0,0,1-1.035.371,1.95,1.95,0,0,1-1.814-2.063A5.2,5.2,0,0,1,303,24.077a3.076,3.076,0,0,0-.125.752,2.391,2.391,0,0,0,2.225,2.527,1.882,1.882,0,0,0,.335-.031" transform="translate(-0.467 -0.334)" fill="#61b254"/>
      <path id="Path_75" data-name="Path 75" d="M297.949,33.684c0,4.255,6.126,5.614,6.126,5.614V37.977c0-4.416-6.126-5.613-6.126-5.613Z" transform="translate(-0.461 -0.55)" fill="#61b254"/>
      <path id="Path_76" data-name="Path 76" d="M304.719,37.977V39.3s6.127-1.359,6.127-5.613V32.363s-6.127,1.2-6.127,5.614" transform="translate(-0.471 -0.55)" fill="#61b254"/>
      <path id="Path_77" data-name="Path 77" d="M299.495,28.818c0,3.46,4.657,4.564,4.657,4.564V32.309c0-3.59-4.657-4.564-4.657-4.564Z" transform="translate(-0.463 -0.472)" fill="#61b254"/>
      <path id="Path_78" data-name="Path 78" d="M304.643,32.308v1.073s4.657-1.1,4.657-4.564V27.744s-4.657.974-4.657,4.564" transform="translate(-0.471 -0.472)" fill="#61b254"/>
      <path id="Path_79" data-name="Path 79" d="M288.09,21.106c4.048-4.013,6.645-4.726,9.881-5.226-3.314,2.077-6.409,6.907-5.446,10.3,1.75-3.606,4.806-7.131,7.621-8.414a6.264,6.264,0,0,0-.109,7.3c.354-3.043,2.513-5.968,4.319-7.928,1.805,1.96,3.965,4.885,4.319,7.928a6.261,6.261,0,0,0-.11-7.3c2.816,1.284,5.871,4.809,7.621,8.414.966-3.4-2.13-8.228-5.445-10.3,3.235.5,5.834,1.213,9.882,5.226-1.336-5.368-6.037-7.229-9.8-7.891,4.137-.35,4.956.066,8.61,1.558-3.966-3.848-6.747-4.543-10.719-4.168a5.287,5.287,0,0,1,2.334-1.165c-1.667-.647-4.273-.308-5.288.651a3.65,3.65,0,0,0-1.4-2.474V7.6l-.013.008-.013-.008v.016a3.647,3.647,0,0,0-1.395,2.474c-1.015-.958-3.621-1.3-5.289-.651A5.307,5.307,0,0,1,300,10.605c-3.974-.376-6.755.319-10.72,4.168,3.652-1.492,4.474-1.908,8.609-1.558-3.758.663-8.46,2.523-9.794,7.891" transform="translate(-0.445 -0.129)" fill="#61b254"/>
    </g>
  </g>
</svg>
